<svg width="48" height="48" viewBox="0 0 48 48" fill="none" xmlns="http://www.w3.org/2000/svg">
<path opacity="0.12" d="M30.0008 20C30.0008 18.4087 29.3686 16.8826 28.2434 15.7574C27.1182 14.6321 25.5921 14 24.0008 14C22.4095 14 20.8833 14.6321 19.7581 15.7574C18.6329 16.8826 18.0008 18.4087 18.0008 20C18.0008 23.0902 17.2212 25.206 16.3504 26.6054C15.6159 27.7859 15.2486 28.3761 15.2621 28.5408C15.277 28.7231 15.3156 28.7926 15.4625 28.9016C15.5952 29 16.1933 29 17.3896 29H30.6119C31.8082 29 32.4063 29 32.539 28.9016C32.6859 28.7926 32.7245 28.7231 32.7394 28.5408C32.7529 28.3761 32.3856 27.7859 31.6511 26.6054C30.7803 25.206 30.0008 23.0902 30.0008 20Z" fill="#DB3127"/>
<path d="M26.0008 33H22.0008M30.0008 20C30.0008 18.4087 29.3686 16.8826 28.2434 15.7574C27.1182 14.6321 25.5921 14 24.0008 14C22.4095 14 20.8833 14.6321 19.7581 15.7574C18.6329 16.8826 18.0008 18.4087 18.0008 20C18.0008 23.0902 17.2212 25.206 16.3504 26.6054C15.6159 27.7859 15.2486 28.3761 15.2621 28.5408C15.277 28.7231 15.3156 28.7926 15.4625 28.9016C15.5952 29 16.1933 29 17.3896 29H30.6119C31.8082 29 32.4063 29 32.539 28.9016C32.6859 28.7926 32.7245 28.7231 32.7394 28.5408C32.7529 28.3761 32.3856 27.7859 31.6511 26.6054C30.7803 25.206 30.0008 23.0902 30.0008 20Z" stroke="#DB3127" stroke-width="2" stroke-linecap="round" stroke-linejoin="round"/>
</svg>
