<svg width="29" height="28" viewBox="0 0 29 28" fill="none" xmlns="http://www.w3.org/2000/svg">
<rect x="0.5" width="28" height="28" rx="8" fill="#F2F4F7"/>
<path d="M19.5 12.3999L16.7825 9.0024C16.4775 8.62115 16.0175 8.3999 15.5325 8.3999H10.385C9.72875 8.3999 9.14125 8.7969 8.8975 9.40615L7.7 12.4574C7.0125 12.6349 6.5 13.2574 6.5 13.9999V16.7999C6.5 17.2417 6.85825 17.5999 7.3 17.5999C7.3 16.0549 8.556 14.7999 10.1 14.7999C11.644 14.7999 12.9 16.0549 12.9 17.5999H16.1C16.1 16.0559 17.356 14.7999 18.9 14.7999C20.444 14.7999 21.7 16.0559 21.7 17.5999C22.1418 17.5999 22.5 17.2417 22.5 16.7999V15.3999C22.5 13.7424 21.1575 12.3999 19.5 12.3999ZM12.1 12.3999H9.4225L10.385 9.9999H12.1V12.3999ZM13.3 12.3999V9.9999H15.5312L17.45 12.3999H13.3Z" fill="#344054"/>
<path opacity="0.5" d="M18.8996 15.6C17.7951 15.6 16.8996 16.4955 16.8996 17.6C16.8996 18.7045 17.7951 19.6 18.8996 19.6C20.0041 19.6 20.8996 18.7045 20.8996 17.6C20.8996 16.495 20.0046 15.6 18.8996 15.6ZM10.0996 15.6C8.99511 15.6 8.09961 16.495 8.09961 17.6C8.09961 18.705 8.99511 19.6 10.0996 19.6C11.2041 19.6 12.0996 18.705 12.0996 17.6C12.0996 16.495 11.2046 15.6 10.0996 15.6ZM9.42211 12.4H12.0996V10H10.3846L9.42211 12.4ZM15.5321 10H13.2996V12.4H17.4271L15.5321 10Z" fill="#344054"/>
</svg>
