<svg width="48" height="47" viewBox="0 0 48 47" fill="none" xmlns="http://www.w3.org/2000/svg">
<g filter="url(#filter0_d_15316_61735)">
<circle cx="23.9766" cy="16.8787" r="14" fill="white"/>
<path d="M29.8092 15.0119L26.6388 11.0481C26.283 10.6033 25.7463 10.3452 25.1805 10.3452H19.1751C18.4095 10.3452 17.724 10.8084 17.4397 11.5192L16.0426 15.079C15.2405 15.286 14.6426 16.0123 14.6426 16.8785V20.1452C14.6426 20.6606 15.0605 21.0785 15.5759 21.0785C15.5759 19.276 17.0412 17.8119 18.8426 17.8119C20.6439 17.8119 22.1092 19.276 22.1092 21.0785H25.8426C25.8426 19.2772 27.3079 17.8119 29.1092 17.8119C30.9106 17.8119 32.3759 19.2772 32.3759 21.0785C32.8913 21.0785 33.3092 20.6606 33.3092 20.1452V18.5119C33.3092 16.5781 31.743 15.0119 29.8092 15.0119ZM21.1759 15.0119H18.0522L19.1751 12.2119H21.1759V15.0119ZM22.5759 15.0119V12.2119H25.179L27.4176 15.0119H22.5759Z" fill="red"/>
<path opacity="0.5" d="M29.1098 18.7455C27.8212 18.7455 26.7764 19.7902 26.7764 21.0788C26.7764 22.3674 27.8212 23.4122 29.1098 23.4122C30.3983 23.4122 31.4431 22.3674 31.4431 21.0788C31.4431 19.7897 30.3989 18.7455 29.1098 18.7455ZM18.8431 18.7455C17.5545 18.7455 16.5098 19.7897 16.5098 21.0788C16.5098 22.368 17.5545 23.4122 18.8431 23.4122C20.1317 23.4122 21.1764 22.368 21.1764 21.0788C21.1764 19.7897 20.1323 18.7455 18.8431 18.7455ZM18.0527 15.0122H21.1764V12.2122H19.1756L18.0527 15.0122ZM25.181 12.2122H22.5764V15.0122H27.3918L25.181 12.2122Z" fill="red"/>
</g>
<defs>
<filter id="filter0_d_15316_61735" x="0.765726" y="0.54541" width="46.4197" height="46.4205" filterUnits="userSpaceOnUse" color-interpolation-filters="sRGB">
<feFlood flood-opacity="0" result="BackgroundImageFix"/>
<feColorMatrix in="SourceAlpha" type="matrix" values="0 0 0 0 0 0 0 0 0 0 0 0 0 0 0 0 0 0 127 0" result="hardAlpha"/>
<feOffset dy="6.87685"/>
<feGaussianBlur stdDeviation="3.43843"/>
<feComposite in2="hardAlpha" operator="out"/>
<feColorMatrix type="matrix" values="0 0 0 0 0 0 0 0 0 0 0 0 0 0 0 0 0 0 0.25 0"/>
<feBlend mode="normal" in2="BackgroundImageFix" result="effect1_dropShadow_15316_61735"/>
<feBlend mode="normal" in="SourceGraphic" in2="effect1_dropShadow_15316_61735" result="shape"/>
</filter>
</defs>
</svg>
