<svg width="34" height="33" viewBox="0 0 34 33" fill="none" xmlns="http://www.w3.org/2000/svg">
<path d="M22.9991 16.9174L21.9565 10.6591H24.12L23.62 12.1572C23.4036 12.8077 23.9726 13.4486 24.6442 13.3107C24.956 13.2467 25.2098 13.0213 25.3103 12.7194L26.1998 10.0506C26.392 9.4738 25.9618 8.87854 25.3538 8.87989H20.9059C20.3565 8.88012 19.9386 9.37342 20.0288 9.91536L20.6088 13.3973C20.5469 13.4133 20.4873 13.4366 20.4308 13.4666L17.2008 15.5225C17.1949 15.5132 17.1912 15.5036 17.1875 15.494C17.1834 15.4833 17.1793 15.4727 17.1723 15.4629L15.5684 13.3278H16.4579C17.1428 13.3278 17.5708 12.5866 17.2283 11.9935C17.0695 11.7182 16.7757 11.5487 16.4579 11.5487H12.01C11.3251 11.5487 10.8971 12.29 11.2395 12.8831C11.3985 13.1583 11.6921 13.3278 12.01 13.3278H13.3444L15.7036 16.4735L13.5392 17.8505L11.9344 18.8718L10.6427 19.6938C10.0647 20.0615 10.1015 20.917 10.709 21.2337C10.9909 21.3807 11.3298 21.3661 11.5981 21.1954L12.8925 20.3717L14.4901 19.3549L20.9202 15.2627L21.2422 17.1985L21.5562 19.0809L21.808 20.5932C21.8999 21.2718 22.692 21.5963 23.2337 21.1774C23.5003 20.9712 23.6275 20.632 23.5622 20.3014L23.3105 18.789L22.9991 16.9174Z" fill="#3B82F6"/>
<g opacity="0.5">
<path d="M23.4946 17.001L24.03 20.2168C24.1267 20.722 23.9314 21.239 23.5241 21.5539C22.6946 22.1954 21.4827 21.7013 21.3365 20.6648L20.7986 17.4361C19.7785 18.0655 19.0986 19.1934 19.0986 20.4801C19.0986 22.454 20.6987 24.0542 22.6726 24.0542C24.6466 24.0542 26.2467 22.454 26.2467 20.4801C26.2467 18.7891 25.0723 17.3723 23.4946 17.001Z" fill="#3B82F6"/>
<path d="M14.665 19.8073C14.7065 20.0252 14.7283 20.2501 14.7283 20.4801C14.7283 22.454 13.1281 24.0542 11.1542 24.0542C9.18026 24.0542 7.58008 22.454 7.58008 20.4801C7.58008 18.5062 9.18026 16.906 11.1542 16.906C11.8995 16.906 12.5915 17.1341 13.1642 17.5244L10.3863 19.292C9.49921 19.8565 9.55566 21.1697 10.4882 21.6558C10.9209 21.8814 11.4411 21.8589 11.8529 21.597L14.665 19.8073Z" fill="#3B82F6"/>
<path d="M13.56 17.8369C13.5564 17.8336 13.5528 17.8304 13.5492 17.8272L13.5388 17.8503L13.56 17.8369Z" fill="#3B82F6"/>
</g>
</svg>
