<svg width="75" height="62" viewBox="0 0 75 62" fill="none" xmlns="http://www.w3.org/2000/svg">
<g clip-path="url(#clip0_17518_19676)">
<path d="M38.4766 15.625C38.9359 15.625 39.3578 15.8766 39.5734 16.2806L40.0141 17.0916L41.4953 15.8569C41.6766 15.7069 41.9016 15.625 42.1359 15.625H42.7734C43.3266 15.625 43.7734 16.0728 43.7734 16.625V17.625C43.7734 18.1781 43.3266 18.625 42.7734 18.625H40.8422L42.5641 21.7844C42.9453 21.6906 43.3516 21.625 43.7734 21.625C45.9828 21.625 47.7734 23.4156 47.7734 25.625C47.7734 27.8344 45.9828 29.625 43.7734 29.625C41.5641 29.625 39.7734 27.8344 39.7734 25.625C39.7734 24.3469 40.3484 23.2594 41.2453 22.525L40.7641 21.6312C39.5266 22.5437 38.7734 23.9937 38.7734 25.625C38.7734 25.9406 38.8078 26.3031 38.8734 26.625H36.6734C36.7391 26.3031 36.7453 25.9406 36.7453 25.625C36.7453 22.8625 34.5359 20.625 31.7453 20.625H28.7453V19.625C28.7453 19.0719 29.2212 18.625 29.7453 18.625H32.9453C33.4766 18.625 33.9828 18.8344 34.3578 19.2094L35.7453 20.625L38.8391 18.0719L38.3266 17.125H36.4953C36.1078 17.125 35.7453 16.7891 35.7453 16.375C35.7453 15.9609 36.1078 15.625 36.4953 15.625H38.4766ZM41.7734 25.625C41.7734 26.7281 42.6703 27.625 43.7734 27.625C44.8766 27.625 45.7734 26.7281 45.7734 25.625C45.7734 24.5219 44.8766 23.625 43.7734 23.625C43.6984 23.625 43.6234 23.6281 43.5516 23.6375L44.4328 25.2687C44.6297 25.6312 44.4953 26.0875 44.1297 26.2844C43.7672 26.4812 43.3109 26.3469 43.1141 25.9812L42.2328 24.35C41.9453 24.6969 41.7734 25.1406 41.7734 25.625ZM35.7047 26.375C35.3516 28.225 33.7266 29.625 31.7734 29.625C29.5644 29.625 27.7734 27.8344 27.7734 25.625C27.7734 23.4156 29.5644 21.625 31.7734 21.625C33.7266 21.625 35.3516 23.025 35.7047 24.875H33.6266C33.3328 24.1406 32.6141 23.625 31.7734 23.625C30.6688 23.625 29.7734 24.5219 29.7734 25.625C29.7734 26.7281 30.6688 27.625 31.7734 27.625C32.6141 27.625 33.3328 27.1094 33.6266 26.375H35.7047ZM30.7734 25.625C30.7734 25.0719 31.2203 24.625 31.7734 24.625C32.3266 24.625 32.7734 25.0719 32.7734 25.625C32.7734 26.1781 32.3266 26.625 31.7734 26.625C31.2203 26.625 30.7734 26.1781 30.7734 25.625Z" fill="#DB3127"/>
</g>
<path d="M21.4727 49H18.7795V40.2727H21.592C22.4386 40.2727 23.163 40.4474 23.7653 40.7969C24.3675 41.1435 24.8292 41.642 25.1502 42.2926C25.4712 42.9403 25.6317 43.7159 25.6317 44.6193C25.6317 45.5284 25.4698 46.3111 25.146 46.9673C24.8221 47.6207 24.3505 48.1236 23.7312 48.4759C23.1119 48.8253 22.359 49 21.4727 49ZM19.8363 48.0625H21.4045C22.1261 48.0625 22.7241 47.9233 23.1985 47.6449C23.6729 47.3665 24.0266 46.9702 24.2596 46.456C24.4925 45.9418 24.609 45.3295 24.609 44.6193C24.609 43.9148 24.494 43.3082 24.2638 42.7997C24.0337 42.2884 23.69 41.8963 23.2326 41.6236C22.7752 41.348 22.2056 41.2102 21.5238 41.2102H19.8363V48.0625ZM27.2681 49V42.4545H28.2397V43.4432H28.3079C28.4272 43.1193 28.6431 42.8565 28.9556 42.6548C29.2681 42.4531 29.6204 42.3523 30.0124 42.3523C30.0863 42.3523 30.1786 42.3537 30.2894 42.3565C30.4002 42.3594 30.484 42.3636 30.5408 42.3693V43.392C30.5067 43.3835 30.4286 43.3707 30.3065 43.3537C30.1871 43.3338 30.0607 43.3239 29.9272 43.3239C29.609 43.3239 29.3249 43.3906 29.0749 43.5241C28.8278 43.6548 28.6317 43.8366 28.4869 44.0696C28.3448 44.2997 28.2738 44.5625 28.2738 44.858V49H27.2681ZM31.733 49V42.4545H32.7386V49H31.733ZM32.2443 41.3636C32.0483 41.3636 31.8793 41.2969 31.7372 41.1634C31.598 41.0298 31.5284 40.8693 31.5284 40.6818C31.5284 40.4943 31.598 40.3338 31.7372 40.2003C31.8793 40.0668 32.0483 40 32.2443 40C32.4403 40 32.608 40.0668 32.7472 40.2003C32.8892 40.3338 32.9602 40.4943 32.9602 40.6818C32.9602 40.8693 32.8892 41.0298 32.7472 41.1634C32.608 41.2969 32.4403 41.3636 32.2443 41.3636ZM39.9329 42.4545L37.5124 49H36.4897L34.0692 42.4545H35.1602L36.967 47.6705H37.0352L38.842 42.4545H39.9329ZM43.7702 49.1364C43.1396 49.1364 42.5955 48.9972 42.1381 48.7188C41.6836 48.4375 41.3327 48.0455 41.0856 47.5426C40.8413 47.0369 40.7191 46.4489 40.7191 45.7784C40.7191 45.108 40.8413 44.517 41.0856 44.0057C41.3327 43.4915 41.6765 43.0909 42.1168 42.804C42.56 42.5142 43.0771 42.3693 43.668 42.3693C44.0089 42.3693 44.3455 42.4261 44.6779 42.5398C45.0103 42.6534 45.3129 42.8381 45.5856 43.0938C45.8583 43.3466 46.0756 43.6818 46.2376 44.0994C46.3995 44.517 46.4805 45.0312 46.4805 45.642V46.0682H41.435V45.1989H45.4577C45.4577 44.8295 45.3839 44.5 45.2362 44.2102C45.0913 43.9205 44.8839 43.6918 44.614 43.5241C44.3469 43.3565 44.0316 43.2727 43.668 43.2727C43.2674 43.2727 42.9208 43.3722 42.6282 43.571C42.3384 43.767 42.1154 44.0227 41.9592 44.3381C41.8029 44.6534 41.7248 44.9915 41.7248 45.3523V45.9318C41.7248 46.4261 41.81 46.8452 41.9805 47.1889C42.1538 47.5298 42.3938 47.7898 42.7006 47.9688C43.0075 48.1449 43.364 48.233 43.7702 48.233C44.0344 48.233 44.2731 48.196 44.4862 48.1222C44.7021 48.0455 44.8881 47.9318 45.0444 47.7812C45.2006 47.6278 45.3214 47.4375 45.4066 47.2102L46.3782 47.483C46.2759 47.8125 46.104 48.1023 45.8626 48.3523C45.6211 48.5994 45.3228 48.7926 44.9677 48.9318C44.6126 49.0682 44.2134 49.1364 43.7702 49.1364ZM48.0103 49V42.4545H48.9819V43.4432H49.0501C49.1694 43.1193 49.3853 42.8565 49.6978 42.6548C50.0103 42.4531 50.3626 42.3523 50.7546 42.3523C50.8285 42.3523 50.9208 42.3537 51.0316 42.3565C51.1424 42.3594 51.2262 42.3636 51.283 42.3693V43.392C51.2489 43.3835 51.1708 43.3707 51.0487 43.3537C50.9293 43.3338 50.8029 43.3239 50.6694 43.3239C50.3512 43.3239 50.0671 43.3906 49.8171 43.5241C49.57 43.6548 49.3739 43.8366 49.229 44.0696C49.087 44.2997 49.016 44.5625 49.016 44.858V49H48.0103ZM57.1115 43.9205L56.2081 44.1761C56.1513 44.0256 56.0675 43.8793 55.9567 43.7372C55.8487 43.5923 55.701 43.473 55.5135 43.3793C55.326 43.2855 55.0859 43.2386 54.7933 43.2386C54.3928 43.2386 54.0589 43.331 53.7919 43.5156C53.5277 43.6974 53.3956 43.929 53.3956 44.2102C53.3956 44.4602 53.4865 44.6577 53.6683 44.8026C53.8501 44.9474 54.1342 45.0682 54.5206 45.1648L55.4922 45.4034C56.0774 45.5455 56.5135 45.7628 56.8004 46.0554C57.0874 46.3452 57.2308 46.7187 57.2308 47.1761C57.2308 47.5511 57.1229 47.8864 56.907 48.1818C56.6939 48.4773 56.3956 48.7102 56.0121 48.8807C55.6286 49.0511 55.1825 49.1364 54.674 49.1364C54.0064 49.1364 53.4538 48.9915 53.0163 48.7017C52.5788 48.4119 52.3018 47.9886 52.1854 47.4318L53.1399 47.1932C53.2308 47.5455 53.4027 47.8097 53.6555 47.9858C53.9112 48.1619 54.245 48.25 54.657 48.25C55.1257 48.25 55.4979 48.1506 55.7734 47.9517C56.0518 47.75 56.1911 47.5085 56.1911 47.2273C56.1911 47 56.1115 46.8097 55.9524 46.6562C55.7933 46.5 55.549 46.3835 55.2195 46.3068L54.1286 46.0511C53.5291 45.9091 53.0888 45.6889 52.8075 45.3906C52.5291 45.0895 52.3899 44.7131 52.3899 44.2614C52.3899 43.892 52.4936 43.5653 52.701 43.2812C52.9112 42.9972 53.1967 42.7741 53.5575 42.6122C53.9212 42.4503 54.3331 42.3693 54.7933 42.3693C55.4411 42.3693 55.9496 42.5114 56.3189 42.7955C56.6911 43.0795 56.9553 43.4545 57.1115 43.9205Z" fill="#DB3127"/>
<defs>
<clipPath id="clip0_17518_19676">
<rect width="20" height="20" fill="white" transform="translate(27.7734 12)"/>
</clipPath>
</defs>
</svg>
