<svg width="75" height="82" viewBox="0 0 75 82" fill="none" xmlns="http://www.w3.org/2000/svg">
<g clip-path="url(#clip0_17518_19700)">
<mask id="mask0_17518_19700" style="mask-type:luminance" maskUnits="userSpaceOnUse" x="26" y="12" width="23" height="22">
<path d="M48.7734 12H26.7734V34H48.7734V12Z" fill="white"/>
</mask>
<g mask="url(#mask0_17518_19700)">
<path d="M32.3242 23.4254C32.4316 23.1676 32.6808 23 32.9601 23H35.7101V18.875C35.7101 18.1157 36.3259 17.5 37.0851 17.5H38.4601C39.2194 17.5 39.8351 18.1157 39.8351 18.875V23H42.5851C42.8631 23 43.114 23.1672 43.2202 23.4243C43.3269 23.6814 43.2678 23.9769 43.0711 24.1737L38.2586 28.9862C37.9902 29.2547 37.5548 29.2547 37.2867 28.9862L32.4742 24.1737C32.2769 23.9754 32.2168 23.6832 32.3242 23.4254Z" fill="#991B1B"/>
<path opacity="0.12" d="M37.7734 34C43.8492 34 48.7734 29.0758 48.7734 23C48.7734 16.9242 43.8492 12 37.7734 12C31.6977 12 26.7734 16.9242 26.7734 23C26.7734 29.0758 31.6977 34 37.7734 34ZM32.325 23.4254C32.4324 23.1676 32.6816 23 32.9609 23H35.7109V18.875C35.7109 18.1157 36.3267 17.5 37.0859 17.5H38.4609C39.2202 17.5 39.8359 18.1157 39.8359 18.875V23H42.5859C42.8639 23 43.1148 23.1672 43.221 23.4243C43.3277 23.6814 43.2686 23.9769 43.0719 24.1737L38.2594 28.9862C37.991 29.2547 37.5556 29.2547 37.2875 28.9862L32.475 24.1737C32.2777 23.9754 32.2176 23.6832 32.325 23.4254Z" fill="#991B1B"/>
</g>
</g>
<path d="M16.7601 42.2727V51H15.7033V42.2727H16.7601ZM19.7484 47.0625V51H18.7427V44.4545H19.7143V45.4773H19.7995C19.9529 45.1449 20.1859 44.8778 20.4984 44.6761C20.8109 44.4716 21.2143 44.3693 21.7086 44.3693C22.1518 44.3693 22.5396 44.4602 22.872 44.642C23.2044 44.821 23.4629 45.0938 23.6475 45.4602C23.8322 45.8239 23.9245 46.2841 23.9245 46.8409V51H22.9189V46.9091C22.9189 46.3949 22.7853 45.9943 22.5183 45.7074C22.2512 45.4176 21.8848 45.2727 21.4189 45.2727C21.0978 45.2727 20.8109 45.3423 20.5581 45.4815C20.3081 45.6207 20.1106 45.8239 19.9657 46.0909C19.8208 46.358 19.7484 46.6818 19.7484 47.0625ZM25.8986 51V42.2727H26.9043V45.4943H26.9895C27.0634 45.3807 27.1657 45.2358 27.2963 45.0597C27.4299 44.8807 27.6202 44.7216 27.8674 44.5824C28.1174 44.4403 28.4554 44.3693 28.8816 44.3693C29.4327 44.3693 29.9185 44.5071 30.339 44.7827C30.7594 45.0582 31.0875 45.4489 31.3233 45.9545C31.5591 46.4602 31.677 47.0568 31.677 47.7443C31.677 48.4375 31.5591 49.0384 31.3233 49.5469C31.0875 50.0526 30.7608 50.4446 30.3432 50.723C29.9256 50.9986 29.4441 51.1364 28.8986 51.1364C28.4782 51.1364 28.1415 51.0668 27.8887 50.9276C27.6358 50.7855 27.4412 50.625 27.3049 50.446C27.1685 50.2642 27.0634 50.1136 26.9895 49.9943H26.8702V51H25.8986ZM26.8873 47.7273C26.8873 48.2216 26.9597 48.6577 27.1046 49.0355C27.2495 49.4105 27.4611 49.7045 27.7395 49.9176C28.0179 50.1278 28.3588 50.233 28.7623 50.233C29.1827 50.233 29.5336 50.1222 29.8148 49.9006C30.0989 49.6761 30.312 49.375 30.454 48.9972C30.5989 48.6165 30.6713 48.1932 30.6713 47.7273C30.6713 47.267 30.6003 46.8523 30.4583 46.483C30.3191 46.1108 30.1074 45.8168 29.8233 45.6009C29.5421 45.3821 29.1884 45.2727 28.7623 45.2727C28.3532 45.2727 28.0094 45.3764 27.731 45.5838C27.4526 45.7884 27.2424 46.0753 27.1003 46.4446C26.9583 46.8111 26.8873 47.2386 26.8873 47.7273ZM35.8745 51.1364C35.2836 51.1364 34.7651 50.9957 34.3191 50.7145C33.8759 50.4332 33.5293 50.0398 33.2793 49.5341C33.0321 49.0284 32.9086 48.4375 32.9086 47.7614C32.9086 47.0795 33.0321 46.4844 33.2793 45.9759C33.5293 45.4673 33.8759 45.0724 34.3191 44.7912C34.7651 44.5099 35.2836 44.3693 35.8745 44.3693C36.4654 44.3693 36.9824 44.5099 37.4256 44.7912C37.8716 45.0724 38.2182 45.4673 38.4654 45.9759C38.7154 46.4844 38.8404 47.0795 38.8404 47.7614C38.8404 48.4375 38.7154 49.0284 38.4654 49.5341C38.2182 50.0398 37.8716 50.4332 37.4256 50.7145C36.9824 50.9957 36.4654 51.1364 35.8745 51.1364ZM35.8745 50.233C36.3233 50.233 36.6926 50.1179 36.9824 49.8878C37.2722 49.6577 37.4867 49.3551 37.6259 48.9801C37.7651 48.6051 37.8347 48.1989 37.8347 47.7614C37.8347 47.3239 37.7651 46.9162 37.6259 46.5384C37.4867 46.1605 37.2722 45.8551 36.9824 45.6222C36.6926 45.3892 36.3233 45.2727 35.8745 45.2727C35.4256 45.2727 35.0563 45.3892 34.7665 45.6222C34.4767 45.8551 34.2623 46.1605 34.123 46.5384C33.9838 46.9162 33.9142 47.3239 33.9142 47.7614C33.9142 48.1989 33.9838 48.6051 34.123 48.9801C34.2623 49.3551 34.4767 49.6577 34.7665 49.8878C35.0563 50.1179 35.4256 50.233 35.8745 50.233ZM44.5005 48.3239V44.4545H45.5062V51H44.5005V49.892H44.4324C44.2789 50.2244 44.0403 50.5071 43.7164 50.7401C43.3926 50.9702 42.9835 51.0852 42.4892 51.0852C42.0801 51.0852 41.7164 50.9957 41.3983 50.8168C41.0801 50.6349 40.8301 50.3622 40.6483 49.9986C40.4664 49.6321 40.3755 49.1705 40.3755 48.6136V44.4545H41.3812V48.5455C41.3812 49.0227 41.5147 49.4034 41.7818 49.6875C42.0517 49.9716 42.3954 50.1136 42.813 50.1136C43.063 50.1136 43.3173 50.0497 43.5758 49.9219C43.8372 49.794 44.0559 49.598 44.2321 49.3338C44.411 49.0696 44.5005 48.733 44.5005 48.3239ZM48.3539 47.0625V51H47.3482V44.4545H48.3198V45.4773H48.405C48.5584 45.1449 48.7914 44.8778 49.1039 44.6761C49.4164 44.4716 49.8198 44.3693 50.3141 44.3693C50.7573 44.3693 51.1451 44.4602 51.4775 44.642C51.8098 44.821 52.0684 45.0938 52.253 45.4602C52.4377 45.8239 52.53 46.2841 52.53 46.8409V51H51.5243V46.9091C51.5243 46.3949 51.3908 45.9943 51.1238 45.7074C50.8567 45.4176 50.4902 45.2727 50.0243 45.2727C49.7033 45.2727 49.4164 45.3423 49.1635 45.4815C48.9135 45.6207 48.7161 45.8239 48.5712 46.0909C48.4263 46.358 48.3539 46.6818 48.3539 47.0625ZM56.8393 51.1364C56.2939 51.1364 55.8123 50.9986 55.3947 50.723C54.9771 50.4446 54.6504 50.0526 54.4146 49.5469C54.1788 49.0384 54.0609 48.4375 54.0609 47.7443C54.0609 47.0568 54.1788 46.4602 54.4146 45.9545C54.6504 45.4489 54.9785 45.0582 55.399 44.7827C55.8194 44.5071 56.3052 44.3693 56.8564 44.3693C57.2825 44.3693 57.6191 44.4403 57.8663 44.5824C58.1163 44.7216 58.3066 44.8807 58.4373 45.0597C58.5708 45.2358 58.6745 45.3807 58.7484 45.4943H58.8336V42.2727H59.8393V51H58.8677V49.9943H58.7484C58.6745 50.1136 58.5694 50.2642 58.4331 50.446C58.2967 50.625 58.1021 50.7855 57.8493 50.9276C57.5964 51.0668 57.2598 51.1364 56.8393 51.1364ZM56.9757 50.233C57.3791 50.233 57.72 50.1278 57.9984 49.9176C58.2768 49.7045 58.4885 49.4105 58.6333 49.0355C58.7782 48.6577 58.8507 48.2216 58.8507 47.7273C58.8507 47.2386 58.7797 46.8111 58.6376 46.4446C58.4956 46.0753 58.2853 45.7884 58.0069 45.5838C57.7285 45.3764 57.3848 45.2727 56.9757 45.2727C56.5495 45.2727 56.1944 45.3821 55.9103 45.6009C55.6291 45.8168 55.4174 46.1108 55.2754 46.483C55.1362 46.8523 55.0666 47.267 55.0666 47.7273C55.0666 48.1932 55.1376 48.6165 55.2797 48.9972C55.4245 49.375 55.6376 49.6761 55.9189 49.9006C56.2029 50.1222 56.5552 50.233 56.9757 50.233ZM14.4904 69V60.2727H17.4393C18.1239 60.2727 18.6836 60.3963 19.1183 60.6435C19.5558 60.8878 19.8796 61.2188 20.0898 61.6364C20.3001 62.054 20.4052 62.5199 20.4052 63.0341C20.4052 63.5483 20.3001 64.0156 20.0898 64.4361C19.8825 64.8565 19.5614 65.1918 19.1268 65.4418C18.6921 65.6889 18.1353 65.8125 17.4563 65.8125H15.3427V64.875H17.4222C17.891 64.875 18.2674 64.794 18.5515 64.6321C18.8356 64.4702 19.0415 64.2514 19.1694 63.9759C19.3001 63.6974 19.3654 63.3835 19.3654 63.0341C19.3654 62.6847 19.3001 62.3722 19.1694 62.0966C19.0415 61.821 18.8342 61.6051 18.5472 61.4489C18.2603 61.2898 17.8796 61.2102 17.4052 61.2102H15.5472V69H14.4904ZM26.0962 66.3239V62.4545H27.1019V69H26.0962V67.892H26.0281C25.8746 68.2244 25.636 68.5071 25.3121 68.7401C24.9883 68.9702 24.5792 69.0852 24.0849 69.0852C23.6758 69.0852 23.3121 68.9957 22.994 68.8168C22.6758 68.6349 22.4258 68.3622 22.244 67.9986C22.0621 67.6321 21.9712 67.1705 21.9712 66.6136V62.4545H22.9769V66.5455C22.9769 67.0227 23.1104 67.4034 23.3775 67.6875C23.6474 67.9716 23.9911 68.1136 24.4087 68.1136C24.6587 68.1136 24.913 68.0497 25.1715 67.9219C25.4329 67.794 25.6516 67.598 25.8278 67.3338C26.0067 67.0696 26.0962 66.733 26.0962 66.3239ZM31.7905 62.4545V63.3068H28.3984V62.4545H31.7905ZM29.3871 60.8864H30.3928V67.125C30.3928 67.4091 30.4339 67.6222 30.5163 67.7642C30.6016 67.9034 30.7095 67.9972 30.8402 68.0455C30.9737 68.0909 31.1143 68.1136 31.2621 68.1136C31.3729 68.1136 31.4638 68.108 31.5348 68.0966C31.6058 68.0824 31.6626 68.071 31.7053 68.0625L31.9098 68.9659C31.8416 68.9915 31.7464 69.017 31.6243 69.0426C31.5021 69.071 31.3473 69.0852 31.1598 69.0852C30.8757 69.0852 30.5973 69.0241 30.3246 68.902C30.0547 68.7798 29.8303 68.5938 29.6513 68.3438C29.4751 68.0938 29.3871 67.7784 29.3871 67.3977V60.8864ZM35.2294 69.1534C34.8146 69.1534 34.4382 69.0753 34.1001 68.919C33.7621 68.7599 33.4936 68.5312 33.2947 68.233C33.0959 67.9318 32.9964 67.5682 32.9964 67.142C32.9964 66.767 33.0703 66.4631 33.218 66.2301C33.3658 65.9943 33.5632 65.8097 33.8104 65.6761C34.0575 65.5426 34.3303 65.4432 34.6286 65.3778C34.9297 65.3097 35.2322 65.2557 35.5362 65.2159C35.9339 65.1648 36.2564 65.1264 36.5036 65.1009C36.7536 65.0724 36.9354 65.0256 37.049 64.9602C37.1655 64.8949 37.2237 64.7812 37.2237 64.6193V64.5852C37.2237 64.1648 37.1087 63.8381 36.8786 63.6051C36.6513 63.3722 36.3061 63.2557 35.843 63.2557C35.3629 63.2557 34.9865 63.3608 34.7138 63.571C34.4411 63.7812 34.2493 64.0057 34.1385 64.2443L33.1839 63.9034C33.3544 63.5057 33.5817 63.196 33.8658 62.9744C34.1527 62.75 34.4652 62.5937 34.8033 62.5057C35.1442 62.4148 35.4794 62.3693 35.8089 62.3693C36.0192 62.3693 36.2607 62.3949 36.5334 62.446C36.8089 62.4943 37.0746 62.5952 37.3303 62.7486C37.5888 62.902 37.8033 63.1335 37.9737 63.4432C38.1442 63.7528 38.2294 64.1676 38.2294 64.6875V69H37.2237V68.1136H37.1726C37.1044 68.2557 36.9908 68.4077 36.8317 68.5696C36.6726 68.7315 36.4609 68.8693 36.1967 68.983C35.9325 69.0966 35.6101 69.1534 35.2294 69.1534ZM35.3828 68.25C35.7805 68.25 36.1158 68.1719 36.3885 68.0156C36.6641 67.8594 36.8714 67.6577 37.0107 67.4105C37.1527 67.1634 37.2237 66.9034 37.2237 66.6307V65.7102C37.1811 65.7614 37.0874 65.8082 36.9425 65.8509C36.8004 65.8906 36.6357 65.9261 36.4482 65.9574C36.2635 65.9858 36.0831 66.0114 35.907 66.0341C35.7337 66.054 35.593 66.071 35.4851 66.0852C35.2237 66.1193 34.9794 66.1747 34.7521 66.2514C34.5277 66.3253 34.3459 66.4375 34.2067 66.5881C34.0703 66.7358 34.0021 66.9375 34.0021 67.1932C34.0021 67.5426 34.1314 67.8068 34.3899 67.9858C34.6513 68.1619 34.9822 68.25 35.3828 68.25ZM41.5479 69L39.5536 62.4545H40.6104L42.0252 67.4659H42.0934L43.4911 62.4545H44.565L45.9457 67.4489H46.0138L47.4286 62.4545H48.4854L46.4911 69H45.5025L44.0707 63.9716H43.9684L42.5366 69H41.5479ZM51.7411 69.1534C51.3263 69.1534 50.9499 69.0753 50.6119 68.919C50.2738 68.7599 50.0053 68.5312 49.8065 68.233C49.6076 67.9318 49.5082 67.5682 49.5082 67.142C49.5082 66.767 49.582 66.4631 49.7298 66.2301C49.8775 65.9943 50.0749 65.8097 50.3221 65.6761C50.5692 65.5426 50.842 65.4432 51.1403 65.3778C51.4414 65.3097 51.744 65.2557 52.0479 65.2159C52.4457 65.1648 52.7681 65.1264 53.0153 65.1009C53.2653 65.0724 53.4471 65.0256 53.5607 64.9602C53.6772 64.8949 53.7354 64.7812 53.7354 64.6193V64.5852C53.7354 64.1648 53.6204 63.8381 53.3903 63.6051C53.163 63.3722 52.8178 63.2557 52.3548 63.2557C51.8746 63.2557 51.4982 63.3608 51.2255 63.571C50.9528 63.7812 50.761 64.0057 50.6502 64.2443L49.6957 63.9034C49.8661 63.5057 50.0934 63.196 50.3775 62.9744C50.6644 62.75 50.9769 62.5937 51.315 62.5057C51.6559 62.4148 51.9911 62.3693 52.3207 62.3693C52.5309 62.3693 52.7724 62.3949 53.0451 62.446C53.3207 62.4943 53.5863 62.5952 53.842 62.7486C54.1005 62.902 54.315 63.1335 54.4854 63.4432C54.6559 63.7528 54.7411 64.1676 54.7411 64.6875V69H53.7354V68.1136H53.6843C53.6161 68.2557 53.5025 68.4077 53.3434 68.5696C53.1843 68.7315 52.9727 68.8693 52.7085 68.983C52.4442 69.0966 52.1218 69.1534 51.7411 69.1534ZM51.8945 68.25C52.2923 68.25 52.6275 68.1719 52.9002 68.0156C53.1758 67.8594 53.3832 67.6577 53.5224 67.4105C53.6644 67.1634 53.7354 66.9034 53.7354 66.6307V65.7102C53.6928 65.7614 53.5991 65.8082 53.4542 65.8509C53.3121 65.8906 53.1474 65.9261 52.9599 65.9574C52.7752 65.9858 52.5948 66.0114 52.4187 66.0341C52.2454 66.054 52.1048 66.071 51.9968 66.0852C51.7354 66.1193 51.4911 66.1747 51.2638 66.2514C51.0394 66.3253 50.8576 66.4375 50.7184 66.5881C50.582 66.7358 50.5138 66.9375 50.5138 67.1932C50.5138 67.5426 50.6431 67.8068 50.9016 67.9858C51.163 68.1619 51.494 68.25 51.8945 68.25ZM56.9901 71.4375C56.8196 71.4375 56.6676 71.4233 56.5341 71.3949C56.4006 71.3693 56.3082 71.3438 56.2571 71.3182L56.5128 70.4318C56.8793 70.5256 57.1847 70.5227 57.429 70.4233C57.6733 70.3267 57.8849 70.0341 58.0639 69.5455L58.2514 69.0341L55.831 62.4545H56.9219L58.7287 67.6705H58.7969L60.6037 62.4545L61.7031 62.4716L58.9162 69.9545C58.7912 70.2869 58.6364 70.5625 58.4517 70.7812C58.267 71.0028 58.0526 71.1676 57.8082 71.2756C57.5668 71.3835 57.294 71.4375 56.9901 71.4375Z" fill="#DB3127"/>
<defs>
<clipPath id="clip0_17518_19700">
<rect width="22" height="22" fill="white" transform="translate(26.7734 12)"/>
</clipPath>
</defs>
</svg>
