<svg width="48" height="48" viewBox="0 0 48 48" fill="none" xmlns="http://www.w3.org/2000/svg">
<g filter="url(#filter0_d_15316_61790)">
<circle cx="23.9648" cy="17.2529" r="14" fill="white"/>
<path d="M18.3625 19.12C17.8471 19.12 17.4292 19.5379 17.4292 20.0533C17.4292 20.5687 17.8471 20.9866 18.3625 20.9866C18.8779 20.9866 19.2958 20.5687 19.2958 20.0533C19.2958 19.5379 18.8788 19.12 18.3625 19.12ZM29.9563 19.3096L26.8267 13.52H28.6292C29.1445 13.52 29.5625 13.102 29.5625 12.5866V11.6533C29.5625 11.1379 29.1445 10.72 28.6292 10.72H28.0339C27.8155 10.72 27.604 10.7965 27.4363 10.9363L26.0532 12.0886L25.5118 11.0871C25.3888 10.8611 25.1525 10.72 24.8958 10.72H22.5625C22.3058 10.72 22.0958 10.9288 22.0958 11.1866V11.6533C22.0958 11.911 22.3048 12.12 22.5625 12.12H24.4785L24.9571 13.0037L22.0958 15.3866H21.4513L20.8038 14.7391C20.3225 14.2579 19.6692 13.9866 18.9896 13.9866H16.0292C15.7713 13.9866 15.5625 14.1966 15.5625 14.4533V14.92C15.5625 15.1766 15.7713 15.3866 16.0292 15.3866H18.3625C20.94 15.3866 23.0292 17.4758 23.0292 20.0533C23.0292 20.373 22.9964 20.6851 22.9351 20.9866H24.9899C24.9279 20.6862 24.8958 20.3479 24.8958 20.0533C24.8958 18.532 25.6349 17.197 26.7642 16.3491L28.7245 19.9746C28.8471 20.2012 29.1294 20.2843 29.356 20.1618L29.7684 19.9428C29.9942 19.82 30.0787 19.5371 29.9563 19.3096Z" fill="#3B82F6"/>
<path opacity="0.5" d="M18.3642 17.9529C19.3611 17.9529 20.1944 18.6529 20.4079 19.5862H22.0509C21.8175 17.7458 20.2659 16.3196 18.3642 16.3196C16.3024 16.3196 14.6309 17.9911 14.6309 20.0529C14.6309 22.1147 16.3024 23.7862 18.3642 23.7862C20.2662 23.7862 21.8175 22.3585 22.0509 20.5196H20.4088C20.1959 21.4529 19.3617 22.1529 18.3642 22.1529C17.2063 22.1529 16.2642 21.2108 16.2642 20.0529C16.2642 18.895 17.2063 17.9529 18.3642 17.9529ZM29.5642 16.3196C29.1713 16.3196 28.8003 16.397 28.4448 16.5093L29.2428 17.9854C29.3484 17.9704 29.4534 17.9529 29.5642 17.9529C30.725 17.9529 31.6642 18.8921 31.6642 20.0529C31.6642 21.2137 30.725 22.1529 29.5642 22.1529C28.4034 22.1529 27.4642 21.2137 27.4642 20.0529C27.4642 19.5113 27.6747 19.0236 28.0108 18.6515L27.2128 17.1747C26.3763 17.8596 25.8309 18.8862 25.8309 20.0529C25.8309 22.1165 27.5007 23.7862 29.5642 23.7862C31.6277 23.7862 33.2975 22.1165 33.2975 20.0529C33.2975 17.9894 31.6292 16.3196 29.5642 16.3196Z" fill="#3B82F6"/>
</g>
<defs>
<filter id="filter0_d_15316_61790" x="0.754007" y="0.919678" width="46.4197" height="46.4205" filterUnits="userSpaceOnUse" color-interpolation-filters="sRGB">
<feFlood flood-opacity="0" result="BackgroundImageFix"/>
<feColorMatrix in="SourceAlpha" type="matrix" values="0 0 0 0 0 0 0 0 0 0 0 0 0 0 0 0 0 0 127 0" result="hardAlpha"/>
<feOffset dy="6.87685"/>
<feGaussianBlur stdDeviation="3.43843"/>
<feComposite in2="hardAlpha" operator="out"/>
<feColorMatrix type="matrix" values="0 0 0 0 0 0 0 0 0 0 0 0 0 0 0 0 0 0 0.25 0"/>
<feBlend mode="normal" in2="BackgroundImageFix" result="effect1_dropShadow_15316_61790"/>
<feBlend mode="normal" in="SourceGraphic" in2="effect1_dropShadow_15316_61790" result="shape"/>
</filter>
</defs>
</svg>
