<svg width="29" height="28" viewBox="0 0 29 28" fill="none" xmlns="http://www.w3.org/2000/svg">
<rect x="0.5" width="28" height="28" rx="8" fill="#F2F4F7"/>
<path d="M9.69883 15.5999C9.25708 15.5999 8.89883 15.9582 8.89883 16.3999C8.89883 16.8417 9.25708 17.1999 9.69883 17.1999C10.1406 17.1999 10.4988 16.8417 10.4988 16.3999C10.4988 15.9582 10.1413 15.5999 9.69883 15.5999ZM19.6363 15.7624L16.9538 10.7999H18.4988C18.9406 10.7999 19.2988 10.4417 19.2988 9.9999V9.1999C19.2988 8.75815 18.9406 8.3999 18.4988 8.3999H17.9886C17.8014 8.3999 17.6201 8.46553 17.4763 8.5853L16.2908 9.57305L15.8268 8.71455C15.7213 8.5209 15.5188 8.3999 15.2988 8.3999H13.2988C13.0788 8.3999 12.8988 8.5789 12.8988 8.7999V9.1999C12.8988 9.4208 13.0779 9.5999 13.2988 9.5999H14.9411L15.3513 10.3574L12.8988 12.3999H12.3463L11.7913 11.8449C11.3788 11.4324 10.8188 11.1999 10.2363 11.1999H7.69883C7.47783 11.1999 7.29883 11.3799 7.29883 11.5999V11.9999C7.29883 12.2199 7.47783 12.3999 7.69883 12.3999H9.69883C11.9081 12.3999 13.6988 14.1907 13.6988 16.3999C13.6988 16.6739 13.6707 16.9414 13.6182 17.1999H15.3795C15.3263 16.9424 15.2988 16.6524 15.2988 16.3999C15.2988 15.0959 15.9323 13.9517 16.9003 13.2249L18.5806 16.3324C18.6856 16.5267 18.9276 16.5979 19.1218 16.4929L19.4753 16.3052C19.6688 16.1999 19.7413 15.9574 19.6363 15.7624Z" fill="#344054"/>
<path opacity="0.5" d="M9.7 14.6C10.5545 14.6 11.2688 15.2 11.4518 16H12.86C12.66 14.4225 11.33 13.2 9.7 13.2C7.93275 13.2 6.5 14.6327 6.5 16.4C6.5 18.1672 7.93275 19.6 9.7 19.6C11.3303 19.6 12.66 18.3762 12.86 16.8H11.4525C11.27 17.6 10.555 18.2 9.7 18.2C8.7075 18.2 7.9 17.3925 7.9 16.4C7.9 15.4075 8.7075 14.6 9.7 14.6ZM19.3 13.2C18.9633 13.2 18.6453 13.2663 18.3405 13.3625L19.0245 14.6278C19.115 14.615 19.205 14.6 19.3 14.6C20.295 14.6 21.1 15.405 21.1 16.4C21.1 17.395 20.295 18.2 19.3 18.2C18.305 18.2 17.5 17.395 17.5 16.4C17.5 15.9357 17.6804 15.5177 17.9685 15.1987L17.2845 13.933C16.5675 14.52 16.1 15.4 16.1 16.4C16.1 18.1687 17.5312 19.6 19.3 19.6C21.0688 19.6 22.5 18.1687 22.5 16.4C22.5 14.6312 21.07 13.2 19.3 13.2Z" fill="#344054"/>
</svg>
