<svg width="75" height="62" viewBox="0 0 75 62" fill="none" xmlns="http://www.w3.org/2000/svg">
<rect x="0.773438" width="74" height="62" rx="4" fill="#FEF2F2"/>
<g clip-path="url(#clip0_17518_19671)">
<path d="M33.7352 19.6356H41.8117L38.9783 14.2179C38.7665 13.8096 38.9262 13.3065 39.3325 13.0942C39.7422 12.8818 40.2457 13.0407 40.4574 13.4491L43.6901 19.6356H46.6623C47.2769 19.6356 47.7734 20.1634 47.7734 20.7467C47.7734 21.3926 47.2769 21.8578 46.6623 21.8578L44.8602 29.094C44.5824 30.0835 43.7248 30.778 42.7039 30.778H32.8116C31.8221 30.778 30.9332 30.0835 30.6859 29.094L28.8845 21.8578C28.271 21.8578 27.7734 21.3926 27.7734 20.7467C27.7734 20.1634 28.271 19.6356 28.8845 19.6356H31.8568L35.0894 13.4491C35.3012 13.0407 35.8047 12.8818 36.2144 13.0942C36.6207 13.3065 36.7804 13.8096 36.5686 14.2179L33.7352 19.6356ZM34.4089 23.5245C34.4089 23.2467 34.1901 22.9689 33.8533 22.9689C33.579 22.9689 33.2977 23.2467 33.2977 23.5245V26.8579C33.2977 27.1946 33.579 27.4134 33.8533 27.4134C34.1901 27.4134 34.4089 27.1946 34.4089 26.8579V23.5245ZM37.1866 23.5245V26.8579C37.1866 27.1946 37.4679 27.4134 37.7422 27.4134C38.079 27.4134 38.329 27.1946 38.329 26.8579V23.5245C38.329 23.2467 38.079 22.9689 37.7422 22.9689C37.4679 22.9689 37.1866 23.2467 37.1866 23.5245ZM42.2179 23.5245C42.2179 23.2467 41.9679 22.9689 41.6623 22.9689C41.3568 22.9689 41.1068 23.2467 41.1068 23.5245V26.8579C41.1068 27.1946 41.3568 27.4134 41.6623 27.4134C41.9679 27.4134 42.2179 27.1946 42.2179 26.8579V23.5245Z" fill="#DB3127"/>
</g>
<path d="M26.9048 44.6364C26.9048 45.5568 26.7386 46.3523 26.4062 47.0227C26.0739 47.6932 25.6179 48.2102 25.0384 48.5739C24.4588 48.9375 23.7969 49.1193 23.0526 49.1193C22.3082 49.1193 21.6463 48.9375 21.0668 48.5739C20.4872 48.2102 20.0313 47.6932 19.6989 47.0227C19.3665 46.3523 19.2003 45.5568 19.2003 44.6364C19.2003 43.7159 19.3665 42.9205 19.6989 42.25C20.0313 41.5795 20.4872 41.0625 21.0668 40.6989C21.6463 40.3352 22.3082 40.1534 23.0526 40.1534C23.7969 40.1534 24.4588 40.3352 25.0384 40.6989C25.6179 41.0625 26.0739 41.5795 26.4062 42.25C26.7386 42.9205 26.9048 43.7159 26.9048 44.6364ZM25.8821 44.6364C25.8821 43.8807 25.7557 43.2429 25.5028 42.723C25.2528 42.2031 24.9134 41.8097 24.4844 41.5426C24.0582 41.2756 23.581 41.142 23.0526 41.142C22.5241 41.142 22.0455 41.2756 21.6165 41.5426C21.1903 41.8097 20.8509 42.2031 20.598 42.723C20.348 43.2429 20.223 43.8807 20.223 44.6364C20.223 45.392 20.348 46.0298 20.598 46.5497C20.8509 47.0696 21.1903 47.4631 21.6165 47.7301C22.0455 47.9972 22.5241 48.1307 23.0526 48.1307C23.581 48.1307 24.0582 47.9972 24.4844 47.7301C24.9134 47.4631 25.2528 47.0696 25.5028 46.5497C25.7557 46.0298 25.8821 45.392 25.8821 44.6364ZM28.5455 49V42.4545H29.517V43.4432H29.5852C29.7045 43.1193 29.9205 42.8565 30.233 42.6548C30.5455 42.4531 30.8977 42.3523 31.2898 42.3523C31.3636 42.3523 31.456 42.3537 31.5668 42.3565C31.6776 42.3594 31.7614 42.3636 31.8182 42.3693V43.392C31.7841 43.3835 31.706 43.3707 31.5838 43.3537C31.4645 43.3338 31.3381 43.3239 31.2045 43.3239C30.8864 43.3239 30.6023 43.3906 30.3523 43.5241C30.1051 43.6548 29.9091 43.8366 29.7642 44.0696C29.6222 44.2997 29.5511 44.5625 29.5511 44.858V49H28.5455ZM35.2827 49.1364C34.7372 49.1364 34.2557 48.9986 33.8381 48.723C33.4205 48.4446 33.0938 48.0526 32.858 47.5469C32.6222 47.0384 32.5043 46.4375 32.5043 45.7443C32.5043 45.0568 32.6222 44.4602 32.858 43.9545C33.0938 43.4489 33.4219 43.0582 33.8423 42.7827C34.2628 42.5071 34.7486 42.3693 35.2997 42.3693C35.7259 42.3693 36.0625 42.4403 36.3097 42.5824C36.5597 42.7216 36.75 42.8807 36.8807 43.0597C37.0142 43.2358 37.1179 43.3807 37.1918 43.4943H37.277V40.2727H38.2827V49H37.3111V47.9943H37.1918C37.1179 48.1136 37.0128 48.2642 36.8764 48.446C36.7401 48.625 36.5455 48.7855 36.2926 48.9276C36.0398 49.0668 35.7031 49.1364 35.2827 49.1364ZM35.419 48.233C35.8224 48.233 36.1634 48.1278 36.4418 47.9176C36.7202 47.7045 36.9318 47.4105 37.0767 47.0355C37.2216 46.6577 37.294 46.2216 37.294 45.7273C37.294 45.2386 37.223 44.8111 37.081 44.4446C36.9389 44.0753 36.7287 43.7884 36.4503 43.5838C36.1719 43.3764 35.8281 43.2727 35.419 43.2727C34.9929 43.2727 34.6378 43.3821 34.3537 43.6009C34.0724 43.8168 33.8608 44.1108 33.7188 44.483C33.5795 44.8523 33.5099 45.267 33.5099 45.7273C33.5099 46.1932 33.581 46.6165 33.723 46.9972C33.8679 47.375 34.081 47.6761 34.3622 47.9006C34.6463 48.1222 34.9986 48.233 35.419 48.233ZM43.0085 49.1364C42.3778 49.1364 41.8338 48.9972 41.3764 48.7188C40.9219 48.4375 40.571 48.0455 40.3239 47.5426C40.0795 47.0369 39.9574 46.4489 39.9574 45.7784C39.9574 45.108 40.0795 44.517 40.3239 44.0057C40.571 43.4915 40.9148 43.0909 41.3551 42.804C41.7983 42.5142 42.3153 42.3693 42.9062 42.3693C43.2472 42.3693 43.5838 42.4261 43.9162 42.5398C44.2486 42.6534 44.5511 42.8381 44.8239 43.0938C45.0966 43.3466 45.3139 43.6818 45.4759 44.0994C45.6378 44.517 45.7188 45.0312 45.7188 45.642V46.0682H40.6733V45.1989H44.696C44.696 44.8295 44.6222 44.5 44.4744 44.2102C44.3295 43.9205 44.1222 43.6918 43.8523 43.5241C43.5852 43.3565 43.2699 43.2727 42.9062 43.2727C42.5057 43.2727 42.1591 43.3722 41.8665 43.571C41.5767 43.767 41.3537 44.0227 41.1974 44.3381C41.0412 44.6534 40.9631 44.9915 40.9631 45.3523V45.9318C40.9631 46.4261 41.0483 46.8452 41.2188 47.1889C41.392 47.5298 41.6321 47.7898 41.9389 47.9688C42.2457 48.1449 42.6023 48.233 43.0085 48.233C43.2727 48.233 43.5114 48.196 43.7244 48.1222C43.9403 48.0455 44.1264 47.9318 44.2827 47.7812C44.4389 47.6278 44.5597 47.4375 44.6449 47.2102L45.6165 47.483C45.5142 47.8125 45.3423 48.1023 45.1009 48.3523C44.8594 48.5994 44.5611 48.7926 44.206 48.9318C43.8509 49.0682 43.4517 49.1364 43.0085 49.1364ZM47.2486 49V42.4545H48.2202V43.4432H48.2884C48.4077 43.1193 48.6236 42.8565 48.9361 42.6548C49.2486 42.4531 49.6009 42.3523 49.9929 42.3523C50.0668 42.3523 50.1591 42.3537 50.2699 42.3565C50.3807 42.3594 50.4645 42.3636 50.5213 42.3693V43.392C50.4872 43.3835 50.4091 43.3707 50.2869 43.3537C50.1676 43.3338 50.0412 43.3239 49.9077 43.3239C49.5895 43.3239 49.3054 43.3906 49.0554 43.5241C48.8082 43.6548 48.6122 43.8366 48.4673 44.0696C48.3253 44.2997 48.2543 44.5625 48.2543 44.858V49H47.2486ZM56.3498 43.9205L55.4464 44.1761C55.3896 44.0256 55.3058 43.8793 55.195 43.7372C55.087 43.5923 54.9393 43.473 54.7518 43.3793C54.5643 43.2855 54.3242 43.2386 54.0316 43.2386C53.631 43.2386 53.2972 43.331 53.0302 43.5156C52.766 43.6974 52.6339 43.929 52.6339 44.2102C52.6339 44.4602 52.7248 44.6577 52.9066 44.8026C53.0884 44.9474 53.3725 45.0682 53.7589 45.1648L54.7305 45.4034C55.3157 45.5455 55.7518 45.7628 56.0387 46.0554C56.3256 46.3452 56.4691 46.7187 56.4691 47.1761C56.4691 47.5511 56.3612 47.8864 56.1452 48.1818C55.9322 48.4773 55.6339 48.7102 55.2504 48.8807C54.8668 49.0511 54.4208 49.1364 53.9123 49.1364C53.2447 49.1364 52.6921 48.9915 52.2546 48.7017C51.8171 48.4119 51.5401 47.9886 51.4237 47.4318L52.3782 47.1932C52.4691 47.5455 52.641 47.8097 52.8938 47.9858C53.1495 48.1619 53.4833 48.25 53.8952 48.25C54.364 48.25 54.7362 48.1506 55.0117 47.9517C55.2901 47.75 55.4293 47.5085 55.4293 47.2273C55.4293 47 55.3498 46.8097 55.1907 46.6562C55.0316 46.5 54.7873 46.3835 54.4577 46.3068L53.3668 46.0511C52.7674 45.9091 52.3271 45.6889 52.0458 45.3906C51.7674 45.0895 51.6282 44.7131 51.6282 44.2614C51.6282 43.892 51.7319 43.5653 51.9393 43.2812C52.1495 42.9972 52.435 42.7741 52.7958 42.6122C53.1594 42.4503 53.5714 42.3693 54.0316 42.3693C54.6793 42.3693 55.1879 42.5114 55.5572 42.7955C55.9293 43.0795 56.1935 43.4545 56.3498 43.9205Z" fill="#DB3127"/>
<circle cx="65.7734" cy="9" r="4" fill="#DC2626"/>
<defs>
<clipPath id="clip0_17518_19671">
<rect width="20" height="20" fill="white" transform="translate(27.7734 12)"/>
</clipPath>
</defs>
</svg>
