<svg width="48" height="47" viewBox="0 0 48 47" fill="none" xmlns="http://www.w3.org/2000/svg">
<g filter="url(#filter0_d_15316_61862)">
<circle cx="24.0176" cy="16.4998" r="14" fill="white"/>
<path opacity="0.5" d="M29.5274 12.4804H27.7351H24.3485V14.2103L25.3313 15.3243L27.6654 16.3338C27.9511 16.4579 28.1724 16.6864 28.2894 16.9756C28.4045 17.2666 28.3992 17.5861 28.2751 17.8717C28.0903 18.302 27.6681 18.5796 27.1995 18.5796C27.0388 18.5796 26.8835 18.5465 26.7354 18.4823L24.3477 17.4522V19.5864H32.9121V12.4822H29.5274V12.4804ZM32.2587 18.6974H30.2084V17.8637H32.2587V18.6974Z" fill="#EA580C"/>
<path d="M22.5473 11.2546C23.6762 11.2546 24.5913 10.3394 24.5913 9.21055C24.5913 8.08165 23.6762 7.1665 22.5473 7.1665C21.4184 7.1665 20.5033 8.08165 20.5033 9.21055C20.5033 10.3394 21.4184 11.2546 22.5473 11.2546Z" fill="#EA580C"/>
<path d="M24.3318 21.2124C24.3158 21.1633 24.2952 21.1187 24.2729 21.0732L22.768 18.2365L23.2018 15.7417L24.098 16.7601C24.1676 16.8369 24.2515 16.8994 24.347 16.9395L26.9213 18.0517C27.0123 18.0901 27.106 18.1089 27.1989 18.1089C27.4711 18.1089 27.7309 17.95 27.8442 17.6849C27.9995 17.3296 27.8335 16.9163 27.4782 16.761L25.0477 15.7113L23.5107 13.9681L23.5633 13.6593C23.699 12.88 23.1777 12.1374 22.3967 12.0017L21.2667 11.8062C20.4856 11.6705 19.743 12.1918 19.6073 12.9728L18.2095 21.008L15.662 22.1952C15.1934 22.413 14.9908 22.9708 15.2086 23.4403C15.3675 23.7804 15.7058 23.9804 16.0593 23.9804C16.1896 23.9804 16.3261 23.9527 16.4529 23.8929L19.4377 22.4995C19.7135 22.3719 19.9081 22.1175 19.9644 21.8194L20.3946 19.4558L21.0783 19.5745C21.1756 19.5923 21.2738 19.5986 21.3675 19.595L22.5806 21.8828L23.7035 25.197C23.8356 25.5879 24.2006 25.8334 24.5907 25.8334C24.6898 25.8334 24.7915 25.8173 24.8906 25.7843C25.3798 25.6183 25.6431 25.0872 25.4779 24.5971L24.3318 21.2124Z" fill="#EA580C"/>
</g>
<defs>
<filter id="filter0_d_15316_61862" x="0.806741" y="0.166504" width="46.4197" height="46.4205" filterUnits="userSpaceOnUse" color-interpolation-filters="sRGB">
<feFlood flood-opacity="0" result="BackgroundImageFix"/>
<feColorMatrix in="SourceAlpha" type="matrix" values="0 0 0 0 0 0 0 0 0 0 0 0 0 0 0 0 0 0 127 0" result="hardAlpha"/>
<feOffset dy="6.87685"/>
<feGaussianBlur stdDeviation="3.43843"/>
<feComposite in2="hardAlpha" operator="out"/>
<feColorMatrix type="matrix" values="0 0 0 0 0 0 0 0 0 0 0 0 0 0 0 0 0 0 0.25 0"/>
<feBlend mode="normal" in2="BackgroundImageFix" result="effect1_dropShadow_15316_61862"/>
<feBlend mode="normal" in="SourceGraphic" in2="effect1_dropShadow_15316_61862" result="shape"/>
</filter>
</defs>
</svg>
