<svg width="75" height="62" viewBox="0 0 75 62" fill="none" xmlns="http://www.w3.org/2000/svg">
<g clip-path="url(#clip0_17518_19695)">
<path d="M33.6068 24.4999H39.4401V26.1666H33.6068V24.4999ZM33.6068 21.1666H41.9401V22.8333H33.6068V21.1666ZM33.6068 17.8333H41.9401V19.4999H33.6068V17.8333ZM43.6068 14.4999H40.1234C39.7734 13.5333 38.8568 12.8333 37.7734 12.8333C36.6901 12.8333 35.7734 13.5333 35.4234 14.4999H31.9401C31.8234 14.4999 31.7151 14.5083 31.6068 14.5333C31.2818 14.5999 30.9901 14.7666 30.7651 14.9916C30.6151 15.1416 30.4901 15.3249 30.4068 15.5249C30.3234 15.7166 30.2734 15.9333 30.2734 16.1666V27.8333C30.2734 28.0583 30.3234 28.2833 30.4068 28.4833C30.4901 28.6833 30.6151 28.8583 30.7651 29.0166C30.9901 29.2416 31.2818 29.4083 31.6068 29.4749C31.7151 29.4916 31.8234 29.4999 31.9401 29.4999H43.6068C44.5234 29.4999 45.2734 28.7499 45.2734 27.8333V16.1666C45.2734 15.2499 44.5234 14.4999 43.6068 14.4999ZM37.7734 14.2916C38.1151 14.2916 38.3984 14.5749 38.3984 14.9166C38.3984 15.2583 38.1151 15.5416 37.7734 15.5416C37.4318 15.5416 37.1484 15.2583 37.1484 14.9166C37.1484 14.5749 37.4318 14.2916 37.7734 14.2916ZM43.6068 27.8333H31.9401V16.1666H43.6068V27.8333Z" fill="#DB3127"/>
</g>
<path d="M16.6056 49V40.2727H19.5545C20.2363 40.2727 20.796 40.3892 21.2335 40.6222C21.671 40.8523 21.9949 41.169 22.2051 41.5724C22.4153 41.9759 22.5204 42.4347 22.5204 42.9489C22.5204 43.4631 22.4153 43.919 22.2051 44.3168C21.9949 44.7145 21.6724 45.027 21.2377 45.2543C20.8031 45.4787 20.2477 45.5909 19.5716 45.5909H17.1852V44.6364H19.5375C20.0034 44.6364 20.3784 44.5682 20.6625 44.4318C20.9494 44.2955 21.1568 44.1023 21.2846 43.8523C21.4153 43.5994 21.4806 43.2983 21.4806 42.9489C21.4806 42.5994 21.4153 42.294 21.2846 42.0327C21.1539 41.7713 20.9451 41.5696 20.6582 41.4276C20.3713 41.2827 19.992 41.2102 19.5204 41.2102H17.6625V49H16.6056ZM20.7136 45.0795L22.8613 49H21.6341L19.5204 45.0795H20.7136ZM26.8191 49.1364C26.1884 49.1364 25.6444 48.9972 25.187 48.7188C24.7324 48.4375 24.3816 48.0455 24.1344 47.5426C23.8901 47.0369 23.7679 46.4489 23.7679 45.7784C23.7679 45.108 23.8901 44.517 24.1344 44.0057C24.3816 43.4915 24.7253 43.0909 25.1657 42.804C25.6088 42.5142 26.1259 42.3693 26.7168 42.3693C27.0577 42.3693 27.3944 42.4261 27.7267 42.5398C28.0591 42.6534 28.3617 42.8381 28.6344 43.0938C28.9071 43.3466 29.1245 43.6818 29.2864 44.0994C29.4483 44.517 29.5293 45.0312 29.5293 45.642V46.0682H24.4838V45.1989H28.5066C28.5066 44.8295 28.4327 44.5 28.285 44.2102C28.1401 43.9205 27.9327 43.6918 27.6628 43.5241C27.3958 43.3565 27.0804 43.2727 26.7168 43.2727C26.3162 43.2727 25.9696 43.3722 25.677 43.571C25.3873 43.767 25.1642 44.0227 25.008 44.3381C24.8517 44.6534 24.7736 44.9915 24.7736 45.3523V45.9318C24.7736 46.4261 24.8588 46.8452 25.0293 47.1889C25.2026 47.5298 25.4426 47.7898 25.7495 47.9688C26.0563 48.1449 26.4128 48.233 26.8191 48.233C27.0833 48.233 27.3219 48.196 27.535 48.1222C27.7509 48.0455 27.937 47.9318 28.0932 47.7812C28.2495 47.6278 28.3702 47.4375 28.4554 47.2102L29.427 47.483C29.3248 47.8125 29.1529 48.1023 28.9114 48.3523C28.6699 48.5994 28.3716 48.7926 28.0165 48.9318C27.6614 49.0682 27.2623 49.1364 26.8191 49.1364ZM31.0591 51.4545V42.4545H32.0307V43.4943H32.15C32.2239 43.3807 32.3262 43.2358 32.4569 43.0597C32.5904 42.8807 32.7807 42.7216 33.0279 42.5824C33.2779 42.4403 33.6159 42.3693 34.0421 42.3693C34.5932 42.3693 35.079 42.5071 35.4995 42.7827C35.9199 43.0582 36.248 43.4489 36.4838 43.9545C36.7196 44.4602 36.8375 45.0568 36.8375 45.7443C36.8375 46.4375 36.7196 47.0384 36.4838 47.5469C36.248 48.0526 35.9213 48.4446 35.5037 48.723C35.0861 48.9986 34.6046 49.1364 34.0591 49.1364C33.6387 49.1364 33.302 49.0668 33.0492 48.9276C32.7963 48.7855 32.6017 48.625 32.4654 48.446C32.329 48.2642 32.2239 48.1136 32.15 47.9943H32.0648V51.4545H31.0591ZM32.0478 45.7273C32.0478 46.2216 32.1202 46.6577 32.2651 47.0355C32.41 47.4105 32.6216 47.7045 32.9 47.9176C33.1784 48.1278 33.5194 48.233 33.9228 48.233C34.3432 48.233 34.6941 48.1222 34.9753 47.9006C35.2594 47.6761 35.4725 47.375 35.6145 46.9972C35.7594 46.6165 35.8319 46.1932 35.8319 45.7273C35.8319 45.267 35.7608 44.8523 35.6188 44.483C35.4796 44.1108 35.2679 43.8168 34.9838 43.6009C34.7026 43.3821 34.3489 43.2727 33.9228 43.2727C33.5137 43.2727 33.1699 43.3764 32.8915 43.5838C32.6131 43.7884 32.4029 44.0753 32.2608 44.4446C32.1188 44.8111 32.0478 45.2386 32.0478 45.7273ZM41.0307 49.1364C40.4398 49.1364 39.9213 48.9957 39.4753 48.7145C39.0321 48.4332 38.6855 48.0398 38.4355 47.5341C38.1884 47.0284 38.0648 46.4375 38.0648 45.7614C38.0648 45.0795 38.1884 44.4844 38.4355 43.9759C38.6855 43.4673 39.0321 43.0724 39.4753 42.7912C39.9213 42.5099 40.4398 42.3693 41.0307 42.3693C41.6216 42.3693 42.1387 42.5099 42.5819 42.7912C43.0279 43.0724 43.3745 43.4673 43.6216 43.9759C43.8716 44.4844 43.9966 45.0795 43.9966 45.7614C43.9966 46.4375 43.8716 47.0284 43.6216 47.5341C43.3745 48.0398 43.0279 48.4332 42.5819 48.7145C42.1387 48.9957 41.6216 49.1364 41.0307 49.1364ZM41.0307 48.233C41.4796 48.233 41.8489 48.1179 42.1387 47.8878C42.4284 47.6577 42.6429 47.3551 42.7821 46.9801C42.9213 46.6051 42.9909 46.1989 42.9909 45.7614C42.9909 45.3239 42.9213 44.9162 42.7821 44.5384C42.6429 44.1605 42.4284 43.8551 42.1387 43.6222C41.8489 43.3892 41.4796 43.2727 41.0307 43.2727C40.5819 43.2727 40.2125 43.3892 39.9228 43.6222C39.633 43.8551 39.4185 44.1605 39.2793 44.5384C39.1401 44.9162 39.0705 45.3239 39.0705 45.7614C39.0705 46.1989 39.1401 46.6051 39.2793 46.9801C39.4185 47.3551 39.633 47.6577 39.9228 47.8878C40.2125 48.1179 40.5819 48.233 41.0307 48.233ZM45.5318 49V42.4545H46.5034V43.4432H46.5716C46.6909 43.1193 46.9068 42.8565 47.2193 42.6548C47.5318 42.4531 47.8841 42.3523 48.2761 42.3523C48.35 42.3523 48.4423 42.3537 48.5531 42.3565C48.6639 42.3594 48.7477 42.3636 48.8045 42.3693V43.392C48.7704 43.3835 48.6923 43.3707 48.5701 43.3537C48.4508 43.3338 48.3244 43.3239 48.1909 43.3239C47.8727 43.3239 47.5886 43.3906 47.3386 43.5241C47.0914 43.6548 46.8954 43.8366 46.7505 44.0696C46.6085 44.2997 46.5375 44.5625 46.5375 44.858V49H45.5318ZM53.2534 42.4545V43.3068H49.8613V42.4545H53.2534ZM50.85 40.8864H51.8556V47.125C51.8556 47.4091 51.8968 47.6222 51.9792 47.7642C52.0645 47.9034 52.1724 47.9972 52.3031 48.0455C52.4366 48.0909 52.5772 48.1136 52.725 48.1136C52.8358 48.1136 52.9267 48.108 52.9977 48.0966C53.0687 48.0824 53.1255 48.071 53.1681 48.0625L53.3727 48.9659C53.3045 48.9915 53.2093 49.017 53.0872 49.0426C52.965 49.071 52.8102 49.0852 52.6227 49.0852C52.3386 49.0852 52.0602 49.0241 51.7875 48.902C51.5176 48.7798 51.2931 48.5938 51.1142 48.3438C50.938 48.0938 50.85 47.7784 50.85 47.3977V40.8864ZM59.2853 43.9205L58.3819 44.1761C58.3251 44.0256 58.2413 43.8793 58.1305 43.7372C58.0225 43.5923 57.8748 43.473 57.6873 43.3793C57.4998 43.2855 57.2598 43.2386 56.9672 43.2386C56.5666 43.2386 56.2328 43.331 55.9657 43.5156C55.7015 43.6974 55.5694 43.929 55.5694 44.2102C55.5694 44.4602 55.6603 44.6577 55.8422 44.8026C56.024 44.9474 56.3081 45.0682 56.6944 45.1648L57.666 45.4034C58.2512 45.5455 58.6873 45.7628 58.9743 46.0554C59.2612 46.3452 59.4047 46.7187 59.4047 47.1761C59.4047 47.5511 59.2967 47.8864 59.0808 48.1818C58.8677 48.4773 58.5694 48.7102 58.1859 48.8807C57.8024 49.0511 57.3564 49.1364 56.8478 49.1364C56.1802 49.1364 55.6277 48.9915 55.1902 48.7017C54.7527 48.4119 54.4757 47.9886 54.3592 47.4318L55.3137 47.1932C55.4047 47.5455 55.5765 47.8097 55.8294 47.9858C56.085 48.1619 56.4189 48.25 56.8308 48.25C57.2995 48.25 57.6717 48.1506 57.9473 47.9517C58.2257 47.75 58.3649 47.5085 58.3649 47.2273C58.3649 47 58.2853 46.8097 58.1262 46.6562C57.9672 46.5 57.7228 46.3835 57.3933 46.3068L56.3024 46.0511C55.7029 45.9091 55.2626 45.6889 54.9814 45.3906C54.7029 45.0895 54.5637 44.7131 54.5637 44.2614C54.5637 43.892 54.6674 43.5653 54.8748 43.2812C55.085 42.9972 55.3706 42.7741 55.7314 42.6122C56.095 42.4503 56.5069 42.3693 56.9672 42.3693C57.6149 42.3693 58.1234 42.5114 58.4927 42.7955C58.8649 43.0795 59.1291 43.4545 59.2853 43.9205Z" fill="#DB3127"/>
<defs>
<clipPath id="clip0_17518_19695">
<rect width="20" height="20" fill="white" transform="translate(27.7734 12)"/>
</clipPath>
</defs>
</svg>
