<svg width="75" height="62" viewBox="0 0 75 62" fill="none" xmlns="http://www.w3.org/2000/svg">
<g clip-path="url(#clip0_17518_19680)">
<path d="M37.7741 31.1668C42.8367 31.1668 46.9408 27.0628 46.9408 22.0002C46.9408 16.9376 42.8367 12.8335 37.7741 12.8335C32.7115 12.8335 28.6074 16.9376 28.6074 22.0002C28.6074 27.0628 32.7115 31.1668 37.7741 31.1668Z" fill="#FEF2F2" stroke="#DB3127" stroke-width="1.66667" stroke-linecap="round" stroke-linejoin="round"/>
<mask id="mask0_17518_19680" style="mask-type:luminance" maskUnits="userSpaceOnUse" x="35" y="17" width="7" height="9">
<path fill-rule="evenodd" clip-rule="evenodd" d="M35.6172 25.0884H35.622H37.9672C40.1187 25.0884 41.8628 23.3443 41.8628 21.1928C41.8622 19.0394 40.1172 17.2949 37.9649 17.2949H35.6271" fill="white"/>
</mask>
<g mask="url(#mask0_17518_19680)">
<path d="M35.6193 23.4219C35.6202 23.4219 35.6211 23.4219 35.622 23.4219V26.7553C35.6198 26.7553 35.6175 26.7553 35.6152 26.7552L35.6193 23.4219ZM35.622 23.4219H37.9673V26.7553H35.622V23.4219ZM37.9673 23.4219C39.1983 23.4219 40.1962 22.424 40.1962 21.193L43.5296 21.1925C43.5296 24.2644 41.0392 26.7553 37.9673 26.7553V23.4219ZM40.1962 21.193C40.1958 19.9596 39.1967 18.9618 37.965 18.9618V15.6284C41.0379 15.6284 43.5287 18.1191 43.5296 21.1925L40.1962 21.193ZM37.965 18.9618H35.6272V15.6284H37.965V18.9618Z" fill="#DB3127"/>
</g>
<path d="M37.0362 22.2969L34.832 24.501L37.0362 26.705" stroke="#DB3127" stroke-width="1.66667"/>
</g>
<path d="M16.9924 49V40.2727H19.9412C20.623 40.2727 21.1827 40.3892 21.6202 40.6222C22.0577 40.8523 22.3816 41.169 22.5918 41.5724C22.802 41.9759 22.9071 42.4347 22.9071 42.9489C22.9071 43.4631 22.802 43.919 22.5918 44.3168C22.3816 44.7145 22.0591 45.027 21.6245 45.2543C21.1898 45.4787 20.6344 45.5909 19.9583 45.5909H17.5719V44.6364H19.9242C20.3901 44.6364 20.7651 44.5682 21.0492 44.4318C21.3361 44.2955 21.5435 44.1023 21.6713 43.8523C21.802 43.5994 21.8674 43.2983 21.8674 42.9489C21.8674 42.5994 21.802 42.294 21.6713 42.0327C21.5407 41.7713 21.3319 41.5696 21.0449 41.4276C20.758 41.2827 20.3787 41.2102 19.9071 41.2102H18.0492V49H16.9924ZM21.1003 45.0795L23.248 49H22.0208L19.9071 45.0795H21.1003ZM27.2058 49.1364C26.5751 49.1364 26.0311 48.9972 25.5737 48.7188C25.1191 48.4375 24.7683 48.0455 24.5211 47.5426C24.2768 47.0369 24.1547 46.4489 24.1547 45.7784C24.1547 45.108 24.2768 44.517 24.5211 44.0057C24.7683 43.4915 25.112 43.0909 25.5524 42.804C25.9956 42.5142 26.5126 42.3693 27.1035 42.3693C27.4444 42.3693 27.7811 42.4261 28.1135 42.5398C28.4458 42.6534 28.7484 42.8381 29.0211 43.0938C29.2939 43.3466 29.5112 43.6818 29.6731 44.0994C29.835 44.517 29.916 45.0312 29.916 45.642V46.0682H24.8706V45.1989H28.8933C28.8933 44.8295 28.8194 44.5 28.6717 44.2102C28.5268 43.9205 28.3194 43.6918 28.0495 43.5241C27.7825 43.3565 27.4672 43.2727 27.1035 43.2727C26.7029 43.2727 26.3564 43.3722 26.0637 43.571C25.774 43.767 25.551 44.0227 25.3947 44.3381C25.2385 44.6534 25.1603 44.9915 25.1603 45.3523V45.9318C25.1603 46.4261 25.2456 46.8452 25.416 47.1889C25.5893 47.5298 25.8294 47.7898 26.1362 47.9688C26.443 48.1449 26.7995 48.233 27.2058 48.233C27.47 48.233 27.7086 48.196 27.9217 48.1222C28.1376 48.0455 28.3237 47.9318 28.4799 47.7812C28.6362 47.6278 28.7569 47.4375 28.8422 47.2102L29.8137 47.483C29.7115 47.8125 29.5396 48.1023 29.2981 48.3523C29.0566 48.5994 28.7583 48.7926 28.4032 48.9318C28.0481 49.0682 27.649 49.1364 27.2058 49.1364ZM34.2924 42.4545V43.3068H30.9004V42.4545H34.2924ZM31.889 40.8864H32.8947V47.125C32.8947 47.4091 32.9359 47.6222 33.0183 47.7642C33.1035 47.9034 33.2115 47.9972 33.3422 48.0455C33.4757 48.0909 33.6163 48.1136 33.764 48.1136C33.8748 48.1136 33.9657 48.108 34.0368 48.0966C34.1078 48.0824 34.1646 48.071 34.2072 48.0625L34.4118 48.9659C34.3436 48.9915 34.2484 49.017 34.1262 49.0426C34.0041 49.071 33.8493 49.0852 33.6618 49.0852C33.3777 49.0852 33.0993 49.0241 32.8265 48.902C32.5566 48.7798 32.3322 48.5938 32.1532 48.3438C31.9771 48.0938 31.889 47.7784 31.889 47.3977V40.8864ZM39.9302 46.3239V42.4545H40.9359V49H39.9302V47.892H39.862C39.7086 48.2244 39.47 48.5071 39.1461 48.7401C38.8223 48.9702 38.4132 49.0852 37.9189 49.0852C37.5098 49.0852 37.1461 48.9957 36.8279 48.8168C36.5098 48.6349 36.2598 48.3622 36.0779 47.9986C35.8961 47.6321 35.8052 47.1705 35.8052 46.6136V42.4545H36.8109V46.5455C36.8109 47.0227 36.9444 47.4034 37.2115 47.6875C37.4814 47.9716 37.8251 48.1136 38.2427 48.1136C38.4927 48.1136 38.747 48.0497 39.0055 47.9219C39.2669 47.794 39.4856 47.598 39.6618 47.3338C39.8407 47.0696 39.9302 46.733 39.9302 46.3239ZM42.7779 49V42.4545H43.7495V43.4432H43.8176C43.937 43.1193 44.1529 42.8565 44.4654 42.6548C44.7779 42.4531 45.1301 42.3523 45.5222 42.3523C45.5961 42.3523 45.6884 42.3537 45.7992 42.3565C45.91 42.3594 45.9938 42.3636 46.0506 42.3693V43.392C46.0165 43.3835 45.9384 43.3707 45.8162 43.3537C45.6969 43.3338 45.5705 43.3239 45.437 43.3239C45.1188 43.3239 44.8347 43.3906 44.5847 43.5241C44.3375 43.6548 44.1415 43.8366 43.9966 44.0696C43.8546 44.2997 43.7836 44.5625 43.7836 44.858V49H42.7779ZM48.2484 45.0625V49H47.2427V42.4545H48.2143V43.4773H48.2995C48.4529 43.1449 48.6859 42.8778 48.9984 42.6761C49.3109 42.4716 49.7143 42.3693 50.2086 42.3693C50.6518 42.3693 51.0396 42.4602 51.372 42.642C51.7044 42.821 51.9629 43.0938 52.1475 43.4602C52.3322 43.8239 52.4245 44.2841 52.4245 44.8409V49H51.4189V44.9091C51.4189 44.3949 51.2853 43.9943 51.0183 43.7074C50.7512 43.4176 50.3848 43.2727 49.9189 43.2727C49.5978 43.2727 49.3109 43.3423 49.0581 43.4815C48.8081 43.6207 48.6106 43.8239 48.4657 44.0909C48.3208 44.358 48.2484 44.6818 48.2484 45.0625ZM58.8986 43.9205L57.9952 44.1761C57.9384 44.0256 57.8546 43.8793 57.7438 43.7372C57.6358 43.5923 57.4881 43.473 57.3006 43.3793C57.1131 43.2855 56.873 43.2386 56.5804 43.2386C56.1799 43.2386 55.8461 43.331 55.579 43.5156C55.3148 43.6974 55.1827 43.929 55.1827 44.2102C55.1827 44.4602 55.2736 44.6577 55.4554 44.8026C55.6373 44.9474 55.9213 45.0682 56.3077 45.1648L57.2793 45.4034C57.8645 45.5455 58.3006 45.7628 58.5875 46.0554C58.8745 46.3452 59.0179 46.7187 59.0179 47.1761C59.0179 47.5511 58.91 47.8864 58.6941 48.1818C58.481 48.4773 58.1827 48.7102 57.7992 48.8807C57.4157 49.0511 56.9696 49.1364 56.4611 49.1364C55.7935 49.1364 55.2409 48.9915 54.8034 48.7017C54.3659 48.4119 54.089 47.9886 53.9725 47.4318L54.927 47.1932C55.0179 47.5455 55.1898 47.8097 55.4426 47.9858C55.6983 48.1619 56.0321 48.25 56.4441 48.25C56.9128 48.25 57.285 48.1506 57.5605 47.9517C57.839 47.75 57.9782 47.5085 57.9782 47.2273C57.9782 47 57.8986 46.8097 57.7395 46.6562C57.5804 46.5 57.3361 46.3835 57.0066 46.3068L55.9157 46.0511C55.3162 45.9091 54.8759 45.6889 54.5946 45.3906C54.3162 45.0895 54.177 44.7131 54.177 44.2614C54.177 43.892 54.2807 43.5653 54.4881 43.2812C54.6983 42.9972 54.9838 42.7741 55.3446 42.6122C55.7083 42.4503 56.1202 42.3693 56.5804 42.3693C57.2282 42.3693 57.7367 42.5114 58.106 42.7955C58.4782 43.0795 58.7424 43.4545 58.8986 43.9205Z" fill="#DB3127"/>
<circle cx="65.7734" cy="9" r="4" fill="#DC2626"/>
<defs>
<clipPath id="clip0_17518_19680">
<rect width="20" height="20" fill="white" transform="translate(27.7734 12)"/>
</clipPath>
</defs>
</svg>
