<svg width="75" height="62" viewBox="0 0 75 62" fill="none" xmlns="http://www.w3.org/2000/svg">
<g clip-path="url(#clip0_17518_19709)">
<mask id="mask0_17518_19709" style="mask-type:luminance" maskUnits="userSpaceOnUse" x="27" y="12" width="21" height="20">
<path d="M47.7734 12H27.7734V32H47.7734V12Z" fill="white"/>
</mask>
<g mask="url(#mask0_17518_19709)">
<path d="M29.4404 18.6667H42.7737V20.3333H44.4404V17.8333C44.4406 17.8283 44.4406 17.8233 44.4404 17.8183C44.4382 17.7216 44.4191 17.6259 44.3837 17.5358C44.3746 17.5125 44.3621 17.4917 44.3512 17.4692C44.3376 17.4356 44.3217 17.4031 44.3037 17.3717L40.9704 12.3717C40.8941 12.2569 40.7904 12.1629 40.6688 12.0981C40.5472 12.0332 40.4115 11.9995 40.2737 12H31.9404C31.8031 12.0001 31.668 12.034 31.5471 12.0989C31.4261 12.1637 31.323 12.2574 31.247 12.3717L27.9137 17.3717C27.8957 17.4031 27.8798 17.4356 27.8662 17.4692C27.8554 17.4917 27.8429 17.5125 27.8337 17.5358C27.7973 17.6255 27.777 17.7208 27.7737 17.8175C27.7734 17.8228 27.7734 17.8281 27.7737 17.8333V27.8333C27.7737 28.0543 27.8615 28.2663 28.0178 28.4226C28.174 28.5788 28.386 28.6667 28.607 28.6667H34.4404V27H29.4404V18.6667ZM42.0496 17H36.9404V13.6667H39.8279L42.0496 17ZM32.3862 13.6667H35.2737V17H30.1645L32.3862 13.6667Z" fill="#DB3127"/>
<path d="M42.7734 25.3333H38.9517L40.8625 23.4225L39.6842 22.2441L35.7617 26.1666L39.6842 30.0891L40.8625 28.9108L38.9517 27H42.7734C43.6574 27 44.5053 27.3511 45.1304 27.9762C45.7555 28.6014 46.1067 29.4492 46.1067 30.3333V32H47.7734V30.3333C47.7719 29.0076 47.2445 27.7368 46.3072 26.7995C45.3699 25.8621 44.099 25.3348 42.7734 25.3333Z" fill="#DB3127"/>
</g>
</g>
<path d="M27.0881 49V40.2727H30.0369C30.7188 40.2727 31.2784 40.3892 31.7159 40.6222C32.1534 40.8523 32.4773 41.169 32.6875 41.5724C32.8977 41.9759 33.0028 42.4347 33.0028 42.9489C33.0028 43.4631 32.8977 43.919 32.6875 44.3168C32.4773 44.7145 32.1548 45.027 31.7202 45.2543C31.2855 45.4787 30.7301 45.5909 30.054 45.5909H27.6676V44.6364H30.0199C30.4858 44.6364 30.8608 44.5682 31.1449 44.4318C31.4318 44.2955 31.6392 44.1023 31.767 43.8523C31.8977 43.5994 31.9631 43.2983 31.9631 42.9489C31.9631 42.5994 31.8977 42.294 31.767 42.0327C31.6364 41.7713 31.4276 41.5696 31.1406 41.4276C30.8537 41.2827 30.4744 41.2102 30.0028 41.2102H28.1449V49H27.0881ZM31.196 45.0795L33.3438 49H32.1165L30.0028 45.0795H31.196ZM34.2866 41.2102V40.2727H40.832V41.2102H38.0877V49H37.0309V41.2102H34.2866ZM42.821 40.2727L45.4119 47.6193H45.5142L48.1051 40.2727H49.2131L46.0085 49H44.9176L41.7131 40.2727H42.821Z" fill="#DB3127"/>
<defs>
<clipPath id="clip0_17518_19709">
<rect width="20" height="20" fill="white" transform="translate(27.7734 12)"/>
</clipPath>
</defs>
</svg>
