<svg width="138" height="24" viewBox="0 0 138 24" fill="none" xmlns="http://www.w3.org/2000/svg">
<g clip-path="url(#clip0_17518_23824)">
<rect y="3" width="24" height="6" fill="#12833B"/>
<rect y="9" width="24" height="6" fill="white"/>
<rect y="15" width="24" height="6" fill="#262626"/>
<rect y="3" width="7.5" height="18" fill="#FF323E"/>
</g>
<rect x="32" y="2" width="20" height="20" rx="10" fill="#DB3127"/>
<path d="M38.3791 16.3096L40.7052 16.3219V7.71484L38.9253 7.78004L36.4844 8.78824L37.1982 10.6856L38.3791 10.2037V16.3096Z" fill="white"/>
<path d="M47.1318 12.124C46.8784 11.7205 46.5203 11.3938 46.0959 11.1791C45.6453 10.9528 45.1455 10.843 44.6418 10.8597C44.4642 10.8631 44.2872 10.8814 44.1126 10.9145L44.2388 9.76176L46.9189 9.68995V7.49023L42.0493 7.66693L41.6679 11.9482L42.8375 12.6097L42.894 12.5473C43.017 12.4068 43.1669 12.2924 43.3347 12.2109C43.498 12.1337 43.676 12.0928 43.8564 12.0909C44.0605 12.0822 44.263 12.1296 44.4422 12.2279C44.6099 12.3196 44.749 12.4559 44.8443 12.622C44.9439 12.8008 44.9943 13.003 44.9903 13.2078C44.9938 13.412 44.9441 13.6136 44.8462 13.7927C44.7538 13.9598 44.6173 14.0981 44.4516 14.1924C44.2758 14.2905 44.0774 14.3406 43.8762 14.3379H43.8696C43.5898 14.3371 43.316 14.2561 43.0805 14.1045C42.8466 13.9639 42.6605 13.7558 42.5465 13.5073L42.4655 13.325L41.2168 15.3933L41.2818 15.451C41.6628 15.7866 42.102 16.0492 42.5776 16.2258C43.0619 16.4098 43.575 16.5058 44.0928 16.5092H44.1201C44.7107 16.5201 45.2954 16.3906 45.8265 16.1313C46.3221 15.8875 46.7457 15.5181 47.0555 15.0598C47.3593 14.6048 47.5188 14.0682 47.5132 13.5205C47.5219 13.028 47.3896 12.5433 47.1318 12.124Z" fill="white"/>
<path d="M57.1186 17V6.81818H60.8473C61.5698 6.81818 62.1681 6.9375 62.642 7.17614C63.116 7.41146 63.4706 7.7313 63.706 8.13565C63.9413 8.53669 64.0589 8.98911 64.0589 9.4929C64.0589 9.91714 63.9811 10.2751 63.8253 10.5668C63.6695 10.8551 63.4607 11.0871 63.1989 11.2628C62.9403 11.4351 62.6553 11.5611 62.3438 11.6406V11.7401C62.6818 11.7566 63.0116 11.866 63.3331 12.0682C63.6579 12.267 63.9264 12.5504 64.1385 12.9183C64.3506 13.2862 64.4567 13.7337 64.4567 14.2607C64.4567 14.781 64.334 15.2483 64.0888 15.6626C63.8468 16.0736 63.4723 16.4001 62.9652 16.642C62.4581 16.8807 61.8101 17 61.0213 17H57.1186ZM58.6548 15.6825H60.8722C61.608 15.6825 62.1349 15.54 62.4531 15.255C62.7713 14.9699 62.9304 14.6136 62.9304 14.1861C62.9304 13.8646 62.8492 13.5696 62.6868 13.3011C62.5244 13.0327 62.2924 12.8189 61.9908 12.6598C61.6925 12.5007 61.3378 12.4212 60.9268 12.4212H58.6548V15.6825ZM58.6548 11.223H60.7131C61.0578 11.223 61.3677 11.1567 61.6428 11.0241C61.9212 10.8916 62.1416 10.706 62.304 10.4673C62.4697 10.2254 62.5526 9.94034 62.5526 9.61222C62.5526 9.19129 62.4051 8.8383 62.1101 8.55327C61.8151 8.26823 61.3627 8.12571 60.7528 8.12571H58.6548V11.223ZM70.9968 13.8331V9.36364H72.4883V17H71.0266V15.6776H70.9471C70.7714 16.0852 70.4897 16.425 70.1019 16.6967C69.7174 16.9652 69.2385 17.0994 68.6651 17.0994C68.1746 17.0994 67.7404 16.9917 67.3626 16.7763C66.988 16.5575 66.6931 16.2344 66.4776 15.8068C66.2655 15.3793 66.1594 14.8506 66.1594 14.2209V9.36364H67.646V14.0419C67.646 14.5623 67.7901 14.9766 68.0785 15.2848C68.3668 15.593 68.7414 15.7472 69.2021 15.7472C69.4805 15.7472 69.7572 15.6776 70.0323 15.5384C70.3107 15.3991 70.5411 15.1887 70.7234 14.907C70.909 14.6252 71.0001 14.2673 70.9968 13.8331ZM74.4856 17V9.36364H75.9224V10.5767H76.002C76.1412 10.1657 76.3864 9.84257 76.7377 9.60724C77.0924 9.36861 77.4934 9.24929 77.9409 9.24929C78.0337 9.24929 78.1431 9.2526 78.269 9.25923C78.3983 9.26586 78.4993 9.27415 78.5723 9.28409V10.706C78.5126 10.6894 78.4065 10.6712 78.2541 10.6513C78.1016 10.6281 77.9492 10.6165 77.7967 10.6165C77.4454 10.6165 77.1322 10.6911 76.8571 10.8402C76.5853 10.986 76.3699 11.1899 76.2108 11.4517C76.0517 11.7102 75.9721 12.0052 75.9721 12.3366V17H74.4856ZM86.9792 17H83.6831V6.81818H87.0836C88.0813 6.81818 88.938 7.02202 89.6539 7.42969C90.3699 7.83404 90.9184 8.41572 91.2995 9.17472C91.684 9.9304 91.8762 10.8369 91.8762 11.8942C91.8762 12.9548 91.6824 13.8662 91.2946 14.6286C90.9101 15.3909 90.3533 15.9775 89.6241 16.3885C88.8949 16.7962 88.0133 17 86.9792 17ZM85.2193 15.6577H86.8947C87.6703 15.6577 88.3149 15.5118 88.8287 15.2202C89.3424 14.9252 89.7269 14.4993 89.9821 13.9425C90.2373 13.3823 90.3649 12.6996 90.3649 11.8942C90.3649 11.0954 90.2373 10.4176 89.9821 9.8608C89.7302 9.30398 89.354 8.88139 88.8535 8.59304C88.353 8.30469 87.7316 8.16051 86.9892 8.16051H85.2193V15.6577ZM98.5046 13.8331V9.36364H99.9961V17H98.5344V15.6776H98.4549C98.2792 16.0852 97.9975 16.425 97.6097 16.6967C97.2253 16.9652 96.7463 17.0994 96.1729 17.0994C95.6824 17.0994 95.2482 16.9917 94.8704 16.7763C94.4959 16.5575 94.2009 16.2344 93.9854 15.8068C93.7733 15.3793 93.6673 14.8506 93.6673 14.2209V9.36364H95.1538V14.0419C95.1538 14.5623 95.2979 14.9766 95.5863 15.2848C95.8746 15.593 96.2492 15.7472 96.7099 15.7472C96.9883 15.7472 97.265 15.6776 97.5401 15.5384C97.8185 15.3991 98.0489 15.1887 98.2312 14.907C98.4168 14.6252 98.5079 14.2673 98.5046 13.8331ZM102.113 17V6.81818H103.599V10.6016H103.689C103.775 10.4425 103.899 10.2585 104.062 10.0497C104.224 9.84091 104.449 9.65862 104.738 9.50284C105.026 9.34375 105.407 9.2642 105.881 9.2642C106.498 9.2642 107.048 9.41998 107.532 9.73153C108.016 10.0431 108.395 10.4922 108.67 11.0788C108.949 11.6655 109.088 12.3714 109.088 13.1967C109.088 14.022 108.95 14.7296 108.675 15.3196C108.4 15.9062 108.022 16.3587 107.542 16.6768C107.061 16.9917 106.513 17.1491 105.896 17.1491C105.432 17.1491 105.053 17.0713 104.758 16.9155C104.466 16.7597 104.237 16.5774 104.072 16.3686C103.906 16.1598 103.778 15.9742 103.689 15.8118H103.564V17H102.113ZM103.569 13.1818C103.569 13.7187 103.647 14.1894 103.803 14.5938C103.959 14.9981 104.184 15.3146 104.479 15.5433C104.774 15.7687 105.135 15.8814 105.563 15.8814C106.007 15.8814 106.378 15.7637 106.677 15.5284C106.975 15.2898 107.2 14.9666 107.353 14.5589C107.509 14.1513 107.586 13.6922 107.586 13.1818C107.586 12.678 107.51 12.2256 107.358 11.8246C107.209 11.4235 106.983 11.107 106.682 10.875C106.383 10.643 106.01 10.527 105.563 10.527C105.132 10.527 104.768 10.638 104.469 10.8601C104.174 11.0821 103.951 11.392 103.798 11.7898C103.646 12.1875 103.569 12.6515 103.569 13.1818ZM112.979 17.169C112.496 17.169 112.058 17.0795 111.667 16.9006C111.276 16.7183 110.966 16.4548 110.737 16.1101C110.512 15.7654 110.399 15.3428 110.399 14.8423C110.399 14.4115 110.482 14.0568 110.648 13.7784C110.813 13.5 111.037 13.2796 111.319 13.1172C111.601 12.9548 111.915 12.8321 112.263 12.7493C112.612 12.6664 112.966 12.6035 113.327 12.5604C113.785 12.5073 114.156 12.4643 114.441 12.4311C114.726 12.3946 114.933 12.3366 115.062 12.2571C115.192 12.1776 115.256 12.0483 115.256 11.8693V11.8345C115.256 11.4003 115.134 11.0639 114.888 10.8253C114.647 10.5866 114.285 10.4673 113.805 10.4673C113.304 10.4673 112.91 10.5784 112.621 10.8004C112.336 11.0192 112.139 11.2628 112.03 11.5312L110.633 11.2131C110.799 10.7491 111.04 10.3745 111.359 10.0895C111.68 9.80114 112.05 9.59233 112.467 9.46307C112.885 9.33049 113.324 9.2642 113.785 9.2642C114.09 9.2642 114.413 9.30066 114.754 9.37358C115.099 9.44318 115.42 9.57244 115.719 9.76136C116.02 9.95028 116.267 10.2204 116.46 10.5717C116.652 10.9197 116.748 11.3722 116.748 11.929V17H115.296V15.956H115.237C115.14 16.1482 114.996 16.3371 114.804 16.5227C114.612 16.7083 114.365 16.8625 114.063 16.9851C113.762 17.1077 113.4 17.169 112.979 17.169ZM113.303 15.9759C113.714 15.9759 114.065 15.8946 114.357 15.7322C114.652 15.5698 114.875 15.3577 115.028 15.0959C115.183 14.8307 115.261 14.5473 115.261 14.2457V13.2614C115.208 13.3144 115.106 13.3641 114.953 13.4105C114.804 13.4536 114.633 13.4917 114.441 13.5249C114.249 13.5547 114.062 13.5829 113.879 13.6094C113.697 13.6326 113.545 13.6525 113.422 13.669C113.134 13.7055 112.87 13.7668 112.631 13.853C112.396 13.9392 112.207 14.0634 112.065 14.2259C111.925 14.3849 111.856 14.5971 111.856 14.8622C111.856 15.2301 111.992 15.5085 112.263 15.6974C112.535 15.883 112.882 15.9759 113.303 15.9759ZM118.728 17V9.36364H120.214V17H118.728ZM119.479 8.18537C119.22 8.18537 118.998 8.09919 118.812 7.92685C118.63 7.75118 118.539 7.54238 118.539 7.30043C118.539 7.05516 118.63 6.84635 118.812 6.67401C118.998 6.49834 119.22 6.41051 119.479 6.41051C119.737 6.41051 119.957 6.49834 120.14 6.67401C120.325 6.84635 120.418 7.05516 120.418 7.30043C120.418 7.54238 120.325 7.75118 120.14 7.92685C119.957 8.09919 119.737 8.18537 119.479 8.18537Z" fill="#344054"/>
<rect x="130" y="8" width="8" height="8" rx="4" fill="#22C55E"/>
<defs>
<clipPath id="clip0_17518_23824">
<rect y="3" width="24" height="18" rx="1.5" fill="white"/>
</clipPath>
</defs>
</svg>
