<svg width="75" height="66" viewBox="0 0 75 66" fill="none" xmlns="http://www.w3.org/2000/svg">
<path d="M36.9824 20.5399C36.9824 19.9899 36.5324 19.5399 35.9824 19.5399H28.9824C28.4324 19.5399 27.9824 19.9899 27.9824 20.5399C27.9824 21.0899 28.4324 21.5399 28.9824 21.5399H35.9824C36.5324 21.5399 36.9824 21.0899 36.9824 20.5399ZM36.9824 28.5399C36.9824 27.9899 36.5324 27.5399 35.9824 27.5399H28.9824C28.4324 27.5399 27.9824 27.9899 27.9824 28.5399C27.9824 29.0899 28.4324 29.5399 28.9824 29.5399H35.9824C36.5324 29.5399 36.9824 29.0899 36.9824 28.5399ZM43.0324 22.8299C42.6424 23.2199 42.0124 23.2199 41.6224 22.8299L39.5024 20.7099C39.1124 20.3199 39.1124 19.6899 39.5024 19.2999C39.8924 18.9099 40.5224 18.9099 40.9124 19.2999L42.3224 20.7099L45.8624 17.1699C46.2524 16.7799 46.8824 16.7799 47.2724 17.1699C47.6624 17.5599 47.6624 18.1899 47.2724 18.5799L43.0324 22.8299ZM43.0324 30.8299C42.6424 31.2199 42.0124 31.2199 41.6224 30.8299L39.5024 28.7099C39.1124 28.3199 39.1124 27.6899 39.5024 27.2999C39.8924 26.9099 40.5224 26.9099 40.9124 27.2999L42.3224 28.7099L45.8624 25.1699C46.2524 24.7799 46.8824 24.7799 47.2724 25.1699C47.6624 25.5599 47.6624 26.1899 47.2724 26.5799L43.0324 30.8299Z" fill="#DB3127"/>
<path d="M12.3432 46.4545C12.2921 46.0227 12.0847 45.6875 11.7211 45.4489C11.3574 45.2102 10.9114 45.0909 10.383 45.0909C9.99663 45.0909 9.65856 45.1534 9.36879 45.2784C9.08185 45.4034 8.85742 45.5753 8.69549 45.794C8.5364 46.0128 8.45685 46.2614 8.45685 46.5398C8.45685 46.7727 8.51225 46.973 8.62305 47.1406C8.73668 47.3054 8.88157 47.4432 9.05771 47.554C9.23384 47.6619 9.4185 47.7514 9.61168 47.8224C9.80487 47.8906 9.98242 47.946 10.1444 47.9886L11.0307 48.2273C11.258 48.2869 11.5108 48.3693 11.7892 48.4744C12.0705 48.5795 12.339 48.723 12.5946 48.9048C12.8532 49.0838 13.0662 49.3139 13.2338 49.5952C13.4015 49.8764 13.4853 50.2216 13.4853 50.6307C13.4853 51.1023 13.3617 51.5284 13.1145 51.9091C12.8702 52.2898 12.5123 52.5923 12.0407 52.8168C11.5719 53.0412 11.0023 53.1534 10.3319 53.1534C9.70685 53.1534 9.16566 53.0526 8.70827 52.8509C8.25373 52.6491 7.89577 52.3679 7.63441 52.0071C7.37589 51.6463 7.22958 51.2273 7.19549 50.75H8.2864C8.31481 51.0795 8.4256 51.3523 8.61879 51.5682C8.81481 51.7812 9.06197 51.9403 9.36026 52.0455C9.6614 52.1477 9.98526 52.1989 10.3319 52.1989C10.7353 52.1989 11.0975 52.1335 11.4185 52.0028C11.7395 51.8693 11.9938 51.6847 12.1813 51.4489C12.3688 51.2102 12.4625 50.9318 12.4625 50.6136C12.4625 50.3239 12.3816 50.0881 12.2196 49.9062C12.0577 49.7244 11.8446 49.5767 11.5804 49.4631C11.3162 49.3494 11.0307 49.25 10.7239 49.1648L9.65004 48.858C8.96822 48.6619 8.42844 48.3821 8.03072 48.0185C7.63299 47.6548 7.43413 47.179 7.43413 46.5909C7.43413 46.1023 7.56623 45.6761 7.83043 45.3125C8.09748 44.946 8.45543 44.6619 8.9043 44.4602C9.356 44.2557 9.86026 44.1534 10.4171 44.1534C10.9796 44.1534 11.4796 44.2543 11.9171 44.456C12.3546 44.6548 12.7012 44.9276 12.9569 45.2741C13.2154 45.6207 13.3517 46.0142 13.3659 46.4545H12.3432ZM17.9331 46.4545V47.3068H14.541V46.4545H17.9331ZM15.5297 44.8864H16.5353V51.125C16.5353 51.4091 16.5765 51.6222 16.6589 51.7642C16.7441 51.9034 16.8521 51.9972 16.9828 52.0455C17.1163 52.0909 17.2569 52.1136 17.4047 52.1136C17.5154 52.1136 17.6064 52.108 17.6774 52.0966C17.7484 52.0824 17.8052 52.071 17.8478 52.0625L18.0524 52.9659C17.9842 52.9915 17.889 53.017 17.7669 53.0426C17.6447 53.071 17.4899 53.0852 17.3024 53.0852C17.0183 53.0852 16.7399 53.0241 16.4672 52.902C16.1973 52.7798 15.9728 52.5938 15.7939 52.3438C15.6177 52.0938 15.5297 51.7784 15.5297 51.3977V44.8864ZM22.0346 53.1364C21.4437 53.1364 20.9252 52.9957 20.4792 52.7145C20.036 52.4332 19.6895 52.0398 19.4395 51.5341C19.1923 51.0284 19.0687 50.4375 19.0687 49.7614C19.0687 49.0795 19.1923 48.4844 19.4395 47.9759C19.6895 47.4673 20.036 47.0724 20.4792 46.7912C20.9252 46.5099 21.4437 46.3693 22.0346 46.3693C22.6255 46.3693 23.1426 46.5099 23.5858 46.7912C24.0318 47.0724 24.3784 47.4673 24.6255 47.9759C24.8755 48.4844 25.0005 49.0795 25.0005 49.7614C25.0005 50.4375 24.8755 51.0284 24.6255 51.5341C24.3784 52.0398 24.0318 52.4332 23.5858 52.7145C23.1426 52.9957 22.6255 53.1364 22.0346 53.1364ZM22.0346 52.233C22.4835 52.233 22.8528 52.1179 23.1426 51.8878C23.4324 51.6577 23.6468 51.3551 23.786 50.9801C23.9252 50.6051 23.9949 50.1989 23.9949 49.7614C23.9949 49.3239 23.9252 48.9162 23.786 48.5384C23.6468 48.1605 23.4324 47.8551 23.1426 47.6222C22.8528 47.3892 22.4835 47.2727 22.0346 47.2727C21.5858 47.2727 21.2164 47.3892 20.9267 47.6222C20.6369 47.8551 20.4224 48.1605 20.2832 48.5384C20.144 48.9162 20.0744 49.3239 20.0744 49.7614C20.0744 50.1989 20.144 50.6051 20.2832 50.9801C20.4224 51.3551 20.6369 51.6577 20.9267 51.8878C21.2164 52.1179 21.5858 52.233 22.0346 52.233ZM29.1948 53.1364C28.5811 53.1364 28.0527 52.9915 27.6096 52.7017C27.1664 52.4119 26.8255 52.0128 26.5868 51.5043C26.3482 50.9957 26.2289 50.4148 26.2289 49.7614C26.2289 49.0966 26.351 48.5099 26.5953 48.0014C26.8425 47.4901 27.1863 47.0909 27.6266 46.804C28.0698 46.5142 28.5868 46.3693 29.1777 46.3693C29.638 46.3693 30.0527 46.4545 30.4221 46.625C30.7914 46.7955 31.0939 47.0341 31.3297 47.3409C31.5655 47.6477 31.7118 48.0057 31.7686 48.4148H30.763C30.6863 48.1165 30.5158 47.8523 30.2516 47.6222C29.9902 47.3892 29.638 47.2727 29.1948 47.2727C28.8027 47.2727 28.459 47.375 28.1635 47.5795C27.8709 47.7812 27.6422 48.0668 27.4775 48.4361C27.3155 48.8026 27.2346 49.233 27.2346 49.7273C27.2346 50.233 27.3141 50.6733 27.4732 51.0483C27.6351 51.4233 27.8624 51.7145 28.155 51.9219C28.4505 52.1293 28.7971 52.233 29.1948 52.233C29.4561 52.233 29.6934 52.1875 29.9064 52.0966C30.1195 52.0057 30.2999 51.875 30.4476 51.7045C30.5953 51.5341 30.7005 51.3295 30.763 51.0909H31.7686C31.7118 51.4773 31.5712 51.8253 31.3468 52.1349C31.1252 52.4418 30.8311 52.6861 30.4647 52.8679C30.101 53.0469 29.6777 53.1364 29.1948 53.1364ZM34.1763 50.6136L34.1593 49.3693H34.3638L37.2275 46.4545H38.4718L35.4206 49.5398H35.3354L34.1763 50.6136ZM33.2388 53V44.2727H34.2445V53H33.2388ZM37.3979 53L34.8411 49.7614L35.557 49.0625L38.6763 53H37.3979ZM42.8002 45.2102V44.2727H49.3457V45.2102H46.6014V53H45.5446V45.2102H42.8002ZM51.8759 53.1534C51.4611 53.1534 51.0847 53.0753 50.7466 52.919C50.4086 52.7599 50.1401 52.5312 49.9412 52.233C49.7424 51.9318 49.6429 51.5682 49.6429 51.142C49.6429 50.767 49.7168 50.4631 49.8645 50.2301C50.0123 49.9943 50.2097 49.8097 50.4569 49.6761C50.704 49.5426 50.9767 49.4432 51.275 49.3778C51.5762 49.3097 51.8787 49.2557 52.1827 49.2159C52.5804 49.1648 52.9029 49.1264 53.15 49.1009C53.4 49.0724 53.5819 49.0256 53.6955 48.9602C53.812 48.8949 53.8702 48.7812 53.8702 48.6193V48.5852C53.8702 48.1648 53.7551 47.8381 53.525 47.6051C53.2978 47.3722 52.9526 47.2557 52.4895 47.2557C52.0094 47.2557 51.633 47.3608 51.3603 47.571C51.0875 47.7812 50.8958 48.0057 50.785 48.2443L49.8304 47.9034C50.0009 47.5057 50.2282 47.196 50.5123 46.9744C50.7992 46.75 51.1117 46.5937 51.4498 46.5057C51.7907 46.4148 52.1259 46.3693 52.4554 46.3693C52.6657 46.3693 52.9071 46.3949 53.1799 46.446C53.4554 46.4943 53.7211 46.5952 53.9767 46.7486C54.2353 46.902 54.4498 47.1335 54.6202 47.4432C54.7907 47.7528 54.8759 48.1676 54.8759 48.6875V53H53.8702V52.1136H53.8191C53.7509 52.2557 53.6373 52.4077 53.4782 52.5696C53.3191 52.7315 53.1074 52.8693 52.8432 52.983C52.579 53.0966 52.2566 53.1534 51.8759 53.1534ZM52.0293 52.25C52.427 52.25 52.7623 52.1719 53.035 52.0156C53.3105 51.8594 53.5179 51.6577 53.6571 51.4105C53.7992 51.1634 53.8702 50.9034 53.8702 50.6307V49.7102C53.8276 49.7614 53.7338 49.8082 53.589 49.8509C53.4469 49.8906 53.2821 49.9261 53.0946 49.9574C52.91 49.9858 52.7296 50.0114 52.5534 50.0341C52.3801 50.054 52.2395 50.071 52.1316 50.0852C51.8702 50.1193 51.6259 50.1747 51.3986 50.2514C51.1742 50.3253 50.9924 50.4375 50.8532 50.5881C50.7168 50.7358 50.6486 50.9375 50.6486 51.1932C50.6486 51.5426 50.7779 51.8068 51.0364 51.9858C51.2978 52.1619 51.6287 52.25 52.0293 52.25ZM57.649 50.6136L57.6319 49.3693H57.8365L60.7001 46.4545H61.9444L58.8933 49.5398H58.8081L57.649 50.6136ZM56.7115 53V44.2727H57.7172V53H56.7115ZM60.8706 53L58.3137 49.7614L59.0297 49.0625L62.149 53H60.8706ZM65.7136 53.1364C65.0829 53.1364 64.5389 52.9972 64.0815 52.7188C63.627 52.4375 63.2761 52.0455 63.0289 51.5426C62.7846 51.0369 62.6625 50.4489 62.6625 49.7784C62.6625 49.108 62.7846 48.517 63.0289 48.0057C63.2761 47.4915 63.6199 47.0909 64.0602 46.804C64.5034 46.5142 65.0204 46.3693 65.6113 46.3693C65.9522 46.3693 66.2889 46.4261 66.6213 46.5398C66.9537 46.6534 67.2562 46.8381 67.5289 47.0938C67.8017 47.3466 68.019 47.6818 68.1809 48.0994C68.3429 48.517 68.4238 49.0312 68.4238 49.642V50.0682H63.3784V49.1989H67.4011C67.4011 48.8295 67.3272 48.5 67.1795 48.2102C67.0346 47.9205 66.8272 47.6918 66.5574 47.5241C66.2903 47.3565 65.975 47.2727 65.6113 47.2727C65.2108 47.2727 64.8642 47.3722 64.5716 47.571C64.2818 47.767 64.0588 48.0227 63.9025 48.3381C63.7463 48.6534 63.6681 48.9915 63.6681 49.3523V49.9318C63.6681 50.4261 63.7534 50.8452 63.9238 51.1889C64.0971 51.5298 64.3372 51.7898 64.644 51.9688C64.9508 52.1449 65.3074 52.233 65.7136 52.233C65.9778 52.233 66.2164 52.196 66.4295 52.1222C66.6454 52.0455 66.8315 51.9318 66.9877 51.7812C67.144 51.6278 67.2647 51.4375 67.35 51.2102L68.3216 51.483C68.2193 51.8125 68.0474 52.1023 67.8059 52.3523C67.5645 52.5994 67.2662 52.7926 66.911 52.9318C66.5559 53.0682 66.1568 53.1364 65.7136 53.1364Z" fill="#DB3127"/>
</svg>
