<svg width="43" height="51" viewBox="0 0 43 51" fill="none" xmlns="http://www.w3.org/2000/svg">
<g filter="url(#filter0_d_15316_61874)">
<path d="M22.1087 40.8907L11.7603 29.5109L22.1081 29.7276L31.4888 29.5109L22.1087 40.8907Z" fill="white"/>
<path d="M35.6289 19.5762C35.6289 27.3082 29.3609 33.5762 21.6289 33.5762C13.8969 33.5762 7.62891 27.3082 7.62891 19.5762C7.62891 11.8442 13.8969 5.57617 21.6289 5.57617C29.3609 5.57617 35.6289 11.8442 35.6289 19.5762Z" fill="white"/>
</g>
<path opacity="0.12" d="M27.6924 14.2898H22.8594V20.6332C22.8594 21.0561 22.8594 21.2676 22.9417 21.4291C23.0141 21.5712 23.1296 21.6868 23.2717 21.7592C23.4332 21.8415 23.6447 21.8415 24.0676 21.8415H27.6924C28.1154 21.8415 28.3268 21.8415 28.4884 21.7592C28.6305 21.6868 28.746 21.5712 28.8184 21.4291C28.9007 21.2676 28.9007 21.0561 28.9007 20.6332V15.4981C28.9007 15.0751 28.9007 14.8637 28.8184 14.7021C28.746 14.56 28.6305 14.4445 28.4884 14.3721C28.3268 14.2898 28.1154 14.2898 27.6924 14.2898Z" fill="#2563EB"/>
<path fill-rule="evenodd" clip-rule="evenodd" d="M17.2479 12.0244C17.256 12.0244 17.264 12.0244 17.272 12.0244L21.6761 12.0244C21.8667 12.0244 22.0523 12.0244 22.2095 12.0372C22.3821 12.0513 22.5858 12.0846 22.7908 12.189C23.075 12.3338 23.306 12.5649 23.4508 12.8491C23.5553 13.054 23.5885 13.2577 23.6026 13.4304C23.6054 13.4639 23.6075 13.4988 23.6092 13.5348L27.7174 13.5348C27.908 13.5347 28.0936 13.5347 28.2508 13.5475C28.4235 13.5617 28.6272 13.5949 28.8321 13.6994C29.1163 13.8442 29.3474 14.0752 29.4922 14.3594C29.5966 14.5644 29.6299 14.7681 29.644 14.9407C29.6568 15.0979 29.6568 15.2835 29.6568 15.4741V20.6574C29.6568 20.848 29.6568 21.0336 29.644 21.1908C29.6299 21.3634 29.5966 21.5671 29.4922 21.7721C29.3474 22.0563 29.1163 22.2873 28.8321 22.4321C28.6272 22.5366 28.4235 22.5699 28.2508 22.584C28.0936 22.5968 27.908 22.5968 27.7174 22.5968H24.0445C23.8539 22.5968 23.6683 22.5968 23.5111 22.584C23.3384 22.5699 23.1347 22.5366 22.9298 22.4321C22.6456 22.2873 22.4145 22.0563 22.2697 21.7721C22.1653 21.5671 22.132 21.3634 22.1179 21.1908C22.115 21.1552 22.1127 21.1182 22.111 21.0799C21.9771 21.0865 21.8282 21.0864 21.6761 21.0864L16.8189 21.0864L16.8189 26.3726C16.8189 26.7897 16.4808 27.1278 16.0638 27.1278C15.6467 27.1278 15.3086 26.7897 15.3086 26.3726L15.3086 20.3319L15.3086 13.9879C15.3086 13.9798 15.3086 13.9718 15.3086 13.9638C15.3086 13.9477 15.3086 13.9317 15.3086 13.9157V13.5348C15.3086 13.4768 15.3151 13.4205 15.3275 13.3663C15.3446 13.2083 15.3814 13.0292 15.4732 12.8491C15.618 12.5649 15.8491 12.3338 16.1333 12.189C16.3382 12.0846 16.5419 12.0513 16.7145 12.0372C16.8717 12.0244 17.0574 12.0244 17.2479 12.0244ZM16.8189 19.5761H21.652C21.8759 19.5761 21.9985 19.5755 22.0865 19.5683C22.09 19.568 22.0933 19.5677 22.0965 19.5674C22.0967 19.5643 22.097 19.561 22.0973 19.5575C22.1045 19.4694 22.1051 19.3469 22.1051 19.123V13.9879C22.1051 13.7639 22.1045 13.6414 22.0973 13.5534C22.097 13.5498 22.0967 13.5465 22.0965 13.5434C22.0933 13.5431 22.09 13.5428 22.0865 13.5425C21.9985 13.5353 21.8759 13.5348 21.652 13.5348H17.272C17.0481 13.5348 16.9256 13.5353 16.8375 13.5425C16.834 13.5428 16.8307 13.5431 16.8276 13.5434C16.8273 13.5465 16.827 13.5498 16.8267 13.5534C16.8195 13.6411 16.8189 13.7631 16.8189 13.9857L16.8189 19.5761ZM23.6154 19.1938V20.6333C23.6154 20.8573 23.616 20.9798 23.6232 21.0678C23.6235 21.0713 23.6238 21.0746 23.6241 21.0778C23.6272 21.0781 23.6305 21.0784 23.634 21.0786C23.7221 21.0858 23.8446 21.0864 24.0685 21.0864H27.6933C27.9173 21.0864 28.0398 21.0858 28.1278 21.0786C28.1313 21.0784 28.1347 21.0781 28.1378 21.0778C28.1381 21.0746 28.1384 21.0713 28.1387 21.0678C28.1459 20.9798 28.1464 20.8573 28.1464 20.6333V15.4982C28.1464 15.2743 28.1459 15.1517 28.1387 15.0637C28.1384 15.0602 28.1381 15.0569 28.1378 15.0537C28.1347 15.0534 28.1313 15.0532 28.1278 15.0529C28.0398 15.0457 27.9173 15.0451 27.6933 15.0451H23.6154L23.6154 19.1471C23.6154 19.1627 23.6154 19.1783 23.6154 19.1938Z" fill="#2563EB"/>
<defs>
<filter id="filter0_d_15316_61874" x="0.628906" y="0.909505" width="42" height="49.3145" filterUnits="userSpaceOnUse" color-interpolation-filters="sRGB">
<feFlood flood-opacity="0" result="BackgroundImageFix"/>
<feColorMatrix in="SourceAlpha" type="matrix" values="0 0 0 0 0 0 0 0 0 0 0 0 0 0 0 0 0 0 127 0" result="hardAlpha"/>
<feOffset dy="2.33333"/>
<feGaussianBlur stdDeviation="3.5"/>
<feComposite in2="hardAlpha" operator="out"/>
<feColorMatrix type="matrix" values="0 0 0 0 0 0 0 0 0 0 0 0 0 0 0 0 0 0 0.12 0"/>
<feBlend mode="normal" in2="BackgroundImageFix" result="effect1_dropShadow_15316_61874"/>
<feBlend mode="normal" in="SourceGraphic" in2="effect1_dropShadow_15316_61874" result="shape"/>
</filter>
</defs>
</svg>
