<svg width="75" height="62" viewBox="0 0 75 62" fill="none" xmlns="http://www.w3.org/2000/svg">
<path opacity="0.12" d="M40.2734 23.6667H35.2734V29.5001H40.2734V23.6667Z" fill="#DB3127"/>
<path d="M39.4395 29.5001C39.4395 29.9603 39.8125 30.3334 40.2728 30.3334C40.733 30.3334 41.1061 29.9603 41.1061 29.5001H39.4395ZM34.4395 29.5001C34.4395 29.9603 34.8126 30.3334 35.2728 30.3334C35.733 30.3334 36.1061 29.9603 36.1061 29.5001H34.4395ZM36.1061 17.8334C36.1061 17.3732 35.733 17.0001 35.2728 17.0001C34.8126 17.0001 34.4395 17.3732 34.4395 17.8334H36.1061ZM31.1061 17.8334C31.1061 17.3732 30.733 17.0001 30.2728 17.0001C29.8126 17.0001 29.4395 17.3732 29.4395 17.8334H31.1061ZM41.1061 17.8334C41.1061 17.3732 40.733 17.0001 40.2728 17.0001C39.8125 17.0001 39.4395 17.3732 39.4395 17.8334H41.1061ZM46.1061 17.8334C46.1061 17.3732 45.733 17.0001 45.2728 17.0001C44.8125 17.0001 44.4395 17.3732 44.4395 17.8334H46.1061ZM36.6061 24.5001H38.9395V22.8334H36.6061V24.5001ZM39.4395 25.0001V29.5001H41.1061V25.0001H39.4395ZM36.1061 29.5001V25.0001H34.4395V29.5001H36.1061ZM38.9395 24.5001C39.1865 24.5001 39.3218 24.5007 39.419 24.5087C39.5064 24.5158 39.4874 24.5245 39.4395 24.5001L40.1961 23.0151C39.97 22.8998 39.7451 22.8631 39.5546 22.8475C39.3739 22.8327 39.159 22.8334 38.9395 22.8334V24.5001ZM41.1061 25.0001C41.1061 24.7805 41.1068 24.5657 41.092 24.3849C41.0765 24.1944 41.0397 23.9696 40.9245 23.7434L39.4395 24.5001C39.415 24.4522 39.4237 24.4332 39.4309 24.5206C39.4388 24.6177 39.4395 24.753 39.4395 25.0001H41.1061ZM39.4395 24.5001L40.9245 23.7434C40.7647 23.4298 40.5097 23.1748 40.1961 23.0151L39.4395 24.5001ZM36.6061 22.8334C36.3865 22.8334 36.1717 22.8327 35.9909 22.8475C35.8004 22.8631 35.5757 22.8998 35.3495 23.0151L36.1061 24.5001C36.0582 24.5245 36.0392 24.5158 36.1266 24.5087C36.2238 24.5007 36.359 24.5001 36.6061 24.5001V22.8334ZM36.1061 25.0001C36.1061 24.753 36.1068 24.6177 36.1147 24.5206C36.1219 24.4332 36.1305 24.4522 36.1061 24.5001L34.6211 23.7434C34.5059 23.9696 34.4691 24.1944 34.4536 24.3849C34.4388 24.5657 34.4395 24.7805 34.4395 25.0001H36.1061ZM35.3495 23.0151C35.0359 23.1748 34.7809 23.4298 34.6211 23.7434L36.1061 24.5001L35.3495 23.0151ZM34.4395 17.8334C34.4395 18.7539 33.6933 19.5001 32.7728 19.5001V21.1667C34.6137 21.1667 36.1061 19.6744 36.1061 17.8334H34.4395ZM32.7728 19.5001C31.8523 19.5001 31.1061 18.7539 31.1061 17.8334H29.4395C29.4395 19.6744 30.9318 21.1667 32.7728 21.1667V19.5001ZM39.4395 17.8334C39.4395 18.7539 38.6933 19.5001 37.7728 19.5001V21.1667C39.6137 21.1667 41.1061 19.6744 41.1061 17.8334H39.4395ZM37.7728 19.5001C36.8523 19.5001 36.1061 18.7539 36.1061 17.8334H34.4395C34.4395 19.6744 35.9318 21.1667 37.7728 21.1667V19.5001ZM44.4395 17.8334C44.4395 18.7539 43.6933 19.5001 42.7728 19.5001V21.1667C44.6137 21.1667 46.1061 19.6744 46.1061 17.8334H44.4395ZM42.7728 19.5001C41.8523 19.5001 41.1061 18.7539 41.1061 17.8334H39.4395C39.4395 19.6744 40.9319 21.1667 42.7728 21.1667V19.5001ZM32.9395 15.3334H42.6061V13.6667H32.9395V15.3334ZM44.4395 17.1667V26.8334H46.1061V17.1667H44.4395ZM42.6061 28.6667H32.9395V30.3334H42.6061V28.6667ZM31.1061 26.8334V17.1667H29.4395V26.8334H31.1061ZM32.9395 28.6667C32.459 28.6667 32.1488 28.6661 31.9127 28.6468C31.6863 28.6283 31.6023 28.5969 31.5611 28.5759L30.8045 30.0609C31.1198 30.2216 31.4475 30.281 31.7769 30.3079C32.0967 30.3341 32.4865 30.3334 32.9395 30.3334V28.6667ZM29.4395 26.8334C29.4395 27.2864 29.4388 27.6762 29.4649 27.9959C29.4918 28.3254 29.5513 28.6531 29.7119 28.9684L31.1969 28.2118C31.176 28.1705 31.1446 28.0866 31.1261 27.8602C31.1068 27.6241 31.1061 27.3139 31.1061 26.8334H29.4395ZM31.5611 28.5759C31.4043 28.496 31.2768 28.3686 31.1969 28.2118L29.7119 28.9684C29.9516 29.4388 30.3341 29.8212 30.8045 30.0609L31.5611 28.5759ZM44.4395 26.8334C44.4395 27.3139 44.4388 27.6241 44.4195 27.8602C44.401 28.0866 44.3696 28.1705 44.3486 28.2118L45.8336 28.9684C45.9943 28.6531 46.0537 28.3254 46.0806 27.9959C46.1068 27.6762 46.1061 27.2864 46.1061 26.8334H44.4395ZM42.6061 30.3334C43.0591 30.3334 43.449 30.3341 43.7686 30.3079C44.0981 30.281 44.4258 30.2216 44.7411 30.0609L43.9845 28.5759C43.9432 28.5969 43.8593 28.6283 43.633 28.6468C43.3968 28.6661 43.0866 28.6667 42.6061 28.6667V30.3334ZM44.3486 28.2118C44.2687 28.3686 44.1413 28.496 43.9845 28.5759L44.7411 30.0609C45.2115 29.8212 45.594 29.4388 45.8336 28.9684L44.3486 28.2118ZM42.6061 15.3334C43.0866 15.3334 43.3968 15.3341 43.633 15.3534C43.8593 15.3718 43.9432 15.4032 43.9845 15.4242L44.7411 13.9392C44.4258 13.7786 44.0981 13.7191 43.7686 13.6922C43.449 13.6661 43.0591 13.6667 42.6061 13.6667V15.3334ZM46.1061 17.1667C46.1061 16.7138 46.1068 16.3239 46.0806 16.0042C46.0537 15.6748 45.9943 15.3471 45.8336 15.0318L44.3486 15.7884C44.3696 15.8296 44.401 15.9136 44.4195 16.1399C44.4388 16.3761 44.4395 16.6863 44.4395 17.1667H46.1061ZM43.9845 15.4242C44.1413 15.5041 44.2687 15.6316 44.3486 15.7884L45.8336 15.0318C45.594 14.5614 45.2115 14.1789 44.7411 13.9392L43.9845 15.4242ZM32.9395 13.6667C32.4865 13.6667 32.0967 13.6661 31.7769 13.6922C31.4475 13.7191 31.1198 13.7786 30.8045 13.9392L31.5611 15.4242C31.6023 15.4032 31.6863 15.3718 31.9127 15.3534C32.1488 15.3341 32.459 15.3334 32.9395 15.3334V13.6667ZM31.1061 17.1667C31.1061 16.6863 31.1068 16.3761 31.1261 16.1399C31.1446 15.9136 31.176 15.8296 31.1969 15.7884L29.7119 15.0318C29.5513 15.3471 29.4918 15.6748 29.4649 16.0042C29.4388 16.3239 29.4395 16.7138 29.4395 17.1667H31.1061ZM30.8045 13.9392C30.3341 14.1789 29.9516 14.5614 29.7119 15.0318L31.1969 15.7884C31.2768 15.6316 31.4043 15.5041 31.5611 15.4242L30.8045 13.9392Z" fill="#DB3127"/>
<path d="M5.64595 49L3.25959 40.2727H4.33345L6.15732 47.3807H6.24254L8.1005 40.2727H9.29368L11.1516 47.3807H11.2369L13.0607 40.2727H14.1346L11.7482 49H10.6573L8.73118 42.0455H8.663L6.73686 49H5.64595ZM16.6317 49.1534C16.217 49.1534 15.8406 49.0753 15.5025 48.919C15.1644 48.7599 14.896 48.5312 14.6971 48.233C14.4982 47.9318 14.3988 47.5682 14.3988 47.142C14.3988 46.767 14.4727 46.4631 14.6204 46.2301C14.7681 45.9943 14.9656 45.8097 15.2127 45.6761C15.4599 45.5426 15.7326 45.4432 16.0309 45.3778C16.332 45.3097 16.6346 45.2557 16.9386 45.2159C17.3363 45.1648 17.6587 45.1264 17.9059 45.1009C18.1559 45.0724 18.3377 45.0256 18.4513 44.9602C18.5678 44.8949 18.6261 44.7812 18.6261 44.6193V44.5852C18.6261 44.1648 18.511 43.8381 18.2809 43.6051C18.0536 43.3722 17.7085 43.2557 17.2454 43.2557C16.7653 43.2557 16.3888 43.3608 16.1161 43.571C15.8434 43.7812 15.6516 44.0057 15.5408 44.2443L14.5863 43.9034C14.7567 43.5057 14.984 43.196 15.2681 42.9744C15.555 42.75 15.8675 42.5937 16.2056 42.5057C16.5465 42.4148 16.8817 42.3693 17.2113 42.3693C17.4215 42.3693 17.663 42.3949 17.9357 42.446C18.2113 42.4943 18.4769 42.5952 18.7326 42.7486C18.9911 42.902 19.2056 43.1335 19.3761 43.4432C19.5465 43.7528 19.6317 44.1676 19.6317 44.6875V49H18.6261V48.1136H18.5749C18.5067 48.2557 18.3931 48.4077 18.234 48.5696C18.0749 48.7315 17.8633 48.8693 17.5991 48.983C17.3349 49.0966 17.0124 49.1534 16.6317 49.1534ZM16.7852 48.25C17.1829 48.25 17.5181 48.1719 17.7908 48.0156C18.0664 47.8594 18.2738 47.6577 18.413 47.4105C18.555 47.1634 18.6261 46.9034 18.6261 46.6307V45.7102C18.5835 45.7614 18.4897 45.8082 18.3448 45.8509C18.2028 45.8906 18.038 45.9261 17.8505 45.9574C17.6658 45.9858 17.4854 46.0114 17.3093 46.0341C17.136 46.054 16.9954 46.071 16.8874 46.0852C16.6261 46.1193 16.3817 46.1747 16.1545 46.2514C15.93 46.3253 15.7482 46.4375 15.609 46.5881C15.4727 46.7358 15.4045 46.9375 15.4045 47.1932C15.4045 47.5426 15.5337 47.8068 15.7923 47.9858C16.0536 48.1619 16.3846 48.25 16.7852 48.25ZM21.4673 49V42.4545H22.4389V43.4432H22.5071C22.6264 43.1193 22.8423 42.8565 23.1548 42.6548C23.4673 42.4531 23.8196 42.3523 24.2116 42.3523C24.2855 42.3523 24.3778 42.3537 24.4886 42.3565C24.5994 42.3594 24.6832 42.3636 24.7401 42.3693V43.392C24.706 43.3835 24.6278 43.3707 24.5057 43.3537C24.3864 43.3338 24.2599 43.3239 24.1264 43.3239C23.8082 43.3239 23.5241 43.3906 23.2741 43.5241C23.027 43.6548 22.831 43.8366 22.6861 44.0696C22.544 44.2997 22.473 44.5625 22.473 44.858V49H21.4673ZM28.4773 49.1364C27.8466 49.1364 27.3026 48.9972 26.8452 48.7188C26.3906 48.4375 26.0398 48.0455 25.7926 47.5426C25.5483 47.0369 25.4261 46.4489 25.4261 45.7784C25.4261 45.108 25.5483 44.517 25.7926 44.0057C26.0398 43.4915 26.3835 43.0909 26.8239 42.804C27.267 42.5142 27.7841 42.3693 28.375 42.3693C28.7159 42.3693 29.0526 42.4261 29.3849 42.5398C29.7173 42.6534 30.0199 42.8381 30.2926 43.0938C30.5653 43.3466 30.7827 43.6818 30.9446 44.0994C31.1065 44.517 31.1875 45.0312 31.1875 45.642V46.0682H26.142V45.1989H30.1648C30.1648 44.8295 30.0909 44.5 29.9432 44.2102C29.7983 43.9205 29.5909 43.6918 29.321 43.5241C29.054 43.3565 28.7386 43.2727 28.375 43.2727C27.9744 43.2727 27.6278 43.3722 27.3352 43.571C27.0455 43.767 26.8224 44.0227 26.6662 44.3381C26.5099 44.6534 26.4318 44.9915 26.4318 45.3523V45.9318C26.4318 46.4261 26.517 46.8452 26.6875 47.1889C26.8608 47.5298 27.1009 47.7898 27.4077 47.9688C27.7145 48.1449 28.071 48.233 28.4773 48.233C28.7415 48.233 28.9801 48.196 29.1932 48.1222C29.4091 48.0455 29.5952 47.9318 29.7514 47.7812C29.9077 47.6278 30.0284 47.4375 30.1136 47.2102L31.0852 47.483C30.983 47.8125 30.8111 48.1023 30.5696 48.3523C30.3281 48.5994 30.0298 48.7926 29.6747 48.9318C29.3196 49.0682 28.9205 49.1364 28.4773 49.1364ZM33.723 45.0625V49H32.7173V40.2727H33.723V43.4773H33.8082C33.9616 43.1392 34.1918 42.8707 34.4986 42.6719C34.8082 42.4702 35.2202 42.3693 35.7344 42.3693C36.1804 42.3693 36.571 42.4588 36.9062 42.6378C37.2415 42.8139 37.5014 43.0852 37.6861 43.4517C37.8736 43.8153 37.9673 44.2784 37.9673 44.8409V49H36.9616V44.9091C36.9616 44.3892 36.8267 43.9872 36.5568 43.7031C36.2898 43.4162 35.919 43.2727 35.4446 43.2727C35.1151 43.2727 34.8196 43.3423 34.5582 43.4815C34.2997 43.6207 34.0952 43.8239 33.9446 44.0909C33.7969 44.358 33.723 44.6818 33.723 45.0625ZM42.4663 49.1364C41.8754 49.1364 41.3569 48.9957 40.9109 48.7145C40.4677 48.4332 40.1211 48.0398 39.8711 47.5341C39.6239 47.0284 39.5004 46.4375 39.5004 45.7614C39.5004 45.0795 39.6239 44.4844 39.8711 43.9759C40.1211 43.4673 40.4677 43.0724 40.9109 42.7912C41.3569 42.5099 41.8754 42.3693 42.4663 42.3693C43.0572 42.3693 43.5742 42.5099 44.0174 42.7912C44.4634 43.0724 44.81 43.4673 45.0572 43.9759C45.3072 44.4844 45.4322 45.0795 45.4322 45.7614C45.4322 46.4375 45.3072 47.0284 45.0572 47.5341C44.81 48.0398 44.4634 48.4332 44.0174 48.7145C43.5742 48.9957 43.0572 49.1364 42.4663 49.1364ZM42.4663 48.233C42.9151 48.233 43.2844 48.1179 43.5742 47.8878C43.864 47.6577 44.0785 47.3551 44.2177 46.9801C44.3569 46.6051 44.4265 46.1989 44.4265 45.7614C44.4265 45.3239 44.3569 44.9162 44.2177 44.5384C44.0785 44.1605 43.864 43.8551 43.5742 43.6222C43.2844 43.3892 42.9151 43.2727 42.4663 43.2727C42.0174 43.2727 41.6481 43.3892 41.3583 43.6222C41.0685 43.8551 40.854 44.1605 40.7148 44.5384C40.5756 44.9162 40.506 45.3239 40.506 45.7614C40.506 46.1989 40.5756 46.6051 40.7148 46.9801C40.854 47.3551 41.0685 47.6577 41.3583 47.8878C41.6481 48.1179 42.0174 48.233 42.4663 48.233ZM51.0923 46.3239V42.4545H52.098V49H51.0923V47.892H51.0241C50.8707 48.2244 50.6321 48.5071 50.3082 48.7401C49.9844 48.9702 49.5753 49.0852 49.081 49.0852C48.6719 49.0852 48.3082 48.9957 47.9901 48.8168C47.6719 48.6349 47.4219 48.3622 47.2401 47.9986C47.0582 47.6321 46.9673 47.1705 46.9673 46.6136V42.4545H47.973V46.5455C47.973 47.0227 48.1065 47.4034 48.3736 47.6875C48.6435 47.9716 48.9872 48.1136 49.4048 48.1136C49.6548 48.1136 49.9091 48.0497 50.1676 47.9219C50.429 47.794 50.6477 47.598 50.8239 47.3338C51.0028 47.0696 51.0923 46.733 51.0923 46.3239ZM58.5763 43.9205L57.6729 44.1761C57.6161 44.0256 57.5323 43.8793 57.4215 43.7372C57.3136 43.5923 57.1658 43.473 56.9783 43.3793C56.7908 43.2855 56.5508 43.2386 56.2582 43.2386C55.8576 43.2386 55.5238 43.331 55.2567 43.5156C54.9925 43.6974 54.8604 43.929 54.8604 44.2102C54.8604 44.4602 54.9513 44.6577 55.1332 44.8026C55.315 44.9474 55.5991 45.0682 55.9854 45.1648L56.957 45.4034C57.5423 45.5455 57.9783 45.7628 58.2653 46.0554C58.5522 46.3452 58.6957 46.7187 58.6957 47.1761C58.6957 47.5511 58.5877 47.8864 58.3718 48.1818C58.1587 48.4773 57.8604 48.7102 57.4769 48.8807C57.0934 49.0511 56.6474 49.1364 56.1388 49.1364C55.4712 49.1364 54.9187 48.9915 54.4812 48.7017C54.0437 48.4119 53.7667 47.9886 53.6502 47.4318L54.6048 47.1932C54.6957 47.5455 54.8675 47.8097 55.1204 47.9858C55.3761 48.1619 55.7099 48.25 56.1218 48.25C56.5906 48.25 56.9627 48.1506 57.2383 47.9517C57.5167 47.75 57.6559 47.5085 57.6559 47.2273C57.6559 47 57.5763 46.8097 57.4173 46.6562C57.2582 46.5 57.0138 46.3835 56.6843 46.3068L55.5934 46.0511C54.994 45.9091 54.5536 45.6889 54.2724 45.3906C53.994 45.0895 53.8548 44.7131 53.8548 44.2614C53.8548 43.892 53.9585 43.5653 54.1658 43.2812C54.3761 42.9972 54.6616 42.7741 55.0224 42.6122C55.386 42.4503 55.7979 42.3693 56.2582 42.3693C56.9059 42.3693 57.4144 42.5114 57.7837 42.7955C58.1559 43.0795 58.4201 43.4545 58.5763 43.9205ZM62.9538 49.1364C62.3232 49.1364 61.7791 48.9972 61.3217 48.7188C60.8672 48.4375 60.5163 48.0455 60.2692 47.5426C60.0249 47.0369 59.9027 46.4489 59.9027 45.7784C59.9027 45.108 60.0249 44.517 60.2692 44.0057C60.5163 43.4915 60.8601 43.0909 61.3004 42.804C61.7436 42.5142 62.2607 42.3693 62.8516 42.3693C63.1925 42.3693 63.5291 42.4261 63.8615 42.5398C64.1939 42.6534 64.4964 42.8381 64.7692 43.0938C65.0419 43.3466 65.2592 43.6818 65.4212 44.0994C65.5831 44.517 65.6641 45.0312 65.6641 45.642V46.0682H60.6186V45.1989H64.6413C64.6413 44.8295 64.5675 44.5 64.4197 44.2102C64.2749 43.9205 64.0675 43.6918 63.7976 43.5241C63.5305 43.3565 63.2152 43.2727 62.8516 43.2727C62.451 43.2727 62.1044 43.3722 61.8118 43.571C61.522 43.767 61.299 44.0227 61.1428 44.3381C60.9865 44.6534 60.9084 44.9915 60.9084 45.3523V45.9318C60.9084 46.4261 60.9936 46.8452 61.1641 47.1889C61.3374 47.5298 61.5774 47.7898 61.8842 47.9688C62.1911 48.1449 62.5476 48.233 62.9538 48.233C63.218 48.233 63.4567 48.196 63.6697 48.1222C63.8857 48.0455 64.0717 47.9318 64.228 47.7812C64.3842 47.6278 64.505 47.4375 64.5902 47.2102L65.5618 47.483C65.4595 47.8125 65.2876 48.1023 65.0462 48.3523C64.8047 48.5994 64.5064 48.7926 64.1513 48.9318C63.7962 49.0682 63.397 49.1364 62.9538 49.1364ZM71.8303 43.9205L70.9268 44.1761C70.87 44.0256 70.7862 43.8793 70.6754 43.7372C70.5675 43.5923 70.4197 43.473 70.2322 43.3793C70.0447 43.2855 69.8047 43.2386 69.5121 43.2386C69.1115 43.2386 68.7777 43.331 68.5107 43.5156C68.2464 43.6974 68.1143 43.929 68.1143 44.2102C68.1143 44.4602 68.2053 44.6577 68.3871 44.8026C68.5689 44.9474 68.853 45.0682 69.2393 45.1648L70.2109 45.4034C70.7962 45.5455 71.2322 45.7628 71.5192 46.0554C71.8061 46.3452 71.9496 46.7187 71.9496 47.1761C71.9496 47.5511 71.8416 47.8864 71.6257 48.1818C71.4126 48.4773 71.1143 48.7102 70.7308 48.8807C70.3473 49.0511 69.9013 49.1364 69.3928 49.1364C68.7251 49.1364 68.1726 48.9915 67.7351 48.7017C67.2976 48.4119 67.0206 47.9886 66.9041 47.4318L67.8587 47.1932C67.9496 47.5455 68.1214 47.8097 68.3743 47.9858C68.63 48.1619 68.9638 48.25 69.3757 48.25C69.8445 48.25 70.2166 48.1506 70.4922 47.9517C70.7706 47.75 70.9098 47.5085 70.9098 47.2273C70.9098 47 70.8303 46.8097 70.6712 46.6562C70.5121 46.5 70.2678 46.3835 69.9382 46.3068L68.8473 46.0511C68.2479 45.9091 67.8075 45.6889 67.5263 45.3906C67.2479 45.0895 67.1087 44.7131 67.1087 44.2614C67.1087 43.892 67.2124 43.5653 67.4197 43.2812C67.63 42.9972 67.9155 42.7741 68.2763 42.6122C68.6399 42.4503 69.0518 42.3693 69.5121 42.3693C70.1598 42.3693 70.6683 42.5114 71.0376 42.7955C71.4098 43.0795 71.674 43.4545 71.8303 43.9205Z" fill="#DB3127"/>
</svg>
